<?xml version="1.0" encoding="UTF-8" standalone="no"?>
<svg width="27px" height="27px" viewBox="0 0 27 27" version="1.1" xmlns="http://www.w3.org/2000/svg" xmlns:xlink="http://www.w3.org/1999/xlink">
    <!-- Generator: Sketch 39.1 (31720) - http://www.bohemiancoding.com/sketch -->
    <title>Group 12</title>
    <desc>Created with Sketch.</desc>
    <defs></defs>
    <g id="Page-1" stroke="none" stroke-width="1" fill="none" fill-rule="evenodd">
        <g id="1920" transform="translate(-629.000000, -1159.000000)" fill="#E10000">
            <g id="Group-12" transform="translate(629.000000, 1159.000000)">
                <path d="M26.7091755,10.7959787 C26.6142447,10.3296543 26.1596968,10.0292074 25.6927979,10.1235638 C25.6307553,10.1362021 25.5717287,10.1555904 25.5161489,10.1802926 C25.1536596,10.3404255 24.9380904,10.7356596 25.020383,11.1399415 C25.9343617,15.6286915 24.1377128,20.2791543 20.4428777,22.9876277 C17.9241223,24.8339681 14.8161064,25.585516 11.6912872,25.1043989 C8.56646809,24.6229947 5.82869681,22.9708245 3.98235638,20.4519255 C0.143473404,15.2145 1.28092021,7.83043085 6.51805851,3.99126064 C9.03681383,2.14506383 12.1449734,1.39351596 15.2696489,1.87448936 C18.3042766,2.34196277 20.9713883,3.91629255 22.8139947,6.31369149 L22.0218032,6.19980319 C21.5503085,6.13172872 21.1138564,6.45903191 21.0462128,6.93009574 C20.9784255,7.40115957 21.3054415,7.83789894 21.7765053,7.90568617 L24.6366383,8.31700532 C24.6555957,8.31973404 24.674266,8.31959043 24.6932234,8.3210266 C24.7156277,8.32275 24.7381755,8.32590957 24.7604362,8.32590957 C25.1820957,8.32590957 25.5504734,8.01612766 25.6123723,7.58671277 L26.0236915,4.72657979 C26.0914787,4.25551596 25.7644628,3.8187766 25.2933989,3.75098936 C24.8221915,3.68305851 24.3855957,4.01021809 24.3178085,4.48128191 L24.2013351,5.2911383 C22.0865745,2.52478723 19.0204947,0.708462766 15.5321809,0.171191489 C11.9525266,-0.380585106 8.3893883,0.482840426 5.49938298,2.60119149 C2.60923404,4.7199734 0.713776596,7.85814894 0.162430851,11.4378032 C-0.388914894,15.0176011 0.47393617,18.5805957 2.59257447,21.4707447 C4.71106915,24.36075 7.84924468,26.2560638 11.4290426,26.8075532 C12.1347766,26.9162713 12.8395053,26.969984 13.5389202,26.969984 C16.3872766,26.969984 19.1417074,26.078266 21.4618404,24.3774096 C25.6971064,21.2726968 27.7568617,15.941633 26.7091755,10.7959787 L26.7091755,10.7959787 Z" id="Shape"></path>
                <path d="M18.1820585,13.8117926 L15.2407819,13.8117926 C15.0250691,13.3236383 14.6327074,12.931133 14.1445532,12.7155638 L14.1445532,6.10429787 C14.1445532,5.62849468 13.7586543,5.24259574 13.2828511,5.24259574 C12.8070479,5.24259574 12.4211489,5.62849468 12.4211489,6.10429787 L12.4211489,12.7155638 C11.6691702,13.0478936 11.142383,13.7998723 11.142383,14.6734947 C11.142383,15.8537394 12.1026064,16.8139628 13.2828511,16.8139628 C14.1564734,16.8139628 14.9084521,16.2871755 15.2407819,15.5351968 L18.1820585,15.5351968 C18.6578617,15.5351968 19.0437606,15.1492979 19.0437606,14.6734947 C19.0437606,14.1976915 18.6578617,13.8117926 18.1820585,13.8117926 L18.1820585,13.8117926 Z M12.8656436,14.6734947 C12.8656436,14.4434202 13.0527766,14.2562872 13.2827074,14.2562872 C13.5126383,14.2562872 13.6999149,14.4434202 13.6999149,14.6734947 C13.6999149,14.9035691 13.5127819,15.0905585 13.2827074,15.0905585 C13.052633,15.0905585 12.8656436,14.9034255 12.8656436,14.6734947 L12.8656436,14.6734947 Z" id="Shape"></path>
            </g>
        </g>
    </g>
</svg>