<?xml version="1.0" encoding="UTF-8" standalone="no"?>
<svg width="29px" height="30px" viewBox="0 0 29 30" version="1.1" xmlns="http://www.w3.org/2000/svg" xmlns:xlink="http://www.w3.org/1999/xlink">
    <!-- Generator: Sketch 39.1 (31720) - http://www.bohemiancoding.com/sketch -->
    <title>Group 11</title>
    <desc>Created with Sketch.</desc>
    <defs></defs>
    <g id="Page-1" stroke="none" stroke-width="1" fill="none" fill-rule="evenodd">
        <g id="1920" transform="translate(-868.000000, -1159.000000)" fill="#86B53B">
            <g id="Group-11" transform="translate(868.000000, 1159.000000)">
                <path d="M28.5346987,17.4651639 L28.4541432,17.3422131 C27.9398269,16.5614754 27.4131175,15.75 26.8802115,14.9569672 C27.3387585,14.2684426 27.7973056,13.567623 28.2372628,12.8913934 L28.4913226,12.4979508 C28.9560662,11.7786885 29.0861944,11.0040984 28.8507244,10.3094262 C28.6152543,9.6147541 28.0389722,9.06762295 27.2334167,8.77254098 C26.7314936,8.58811475 26.2171774,8.39754098 25.7276474,8.21311475 C25.3248697,8.05942623 24.9096987,7.9057377 24.5007244,7.75204918 C24.4697415,7.11885246 24.4387585,6.48565574 24.4015791,5.87090164 C24.3829893,5.50204918 24.358203,5.13319672 24.3396132,4.76434426 C24.2652543,3.38114754 23.2861944,2.40983607 21.9539295,2.40983607 C21.7122628,2.40983607 21.4643996,2.44057377 21.2165363,2.50819672 L20.999656,2.56352459 C20.1135449,2.79713115 19.2026474,3.03688525 18.3041432,3.29508197 C17.9013654,2.79713115 17.492391,2.29918033 17.0958098,1.81352459 C16.8665363,1.53688525 16.6434594,1.2602459 16.4141859,0.983606557 C15.8936731,0.350409836 15.2058526,0 14.474656,0 C13.7434594,0 13.0494423,0.350409836 12.5289295,0.989754098 L12.2314936,1.35245902 C11.7109808,1.99180328 11.1656816,2.6557377 10.6451688,3.31967213 C9.93256197,3.12295082 9.21995513,2.93237705 8.63127991,2.77868852 C8.41439957,2.72336066 8.20371581,2.66803279 8.01781838,2.61885246 C8.01162179,2.61885246 8.00542521,2.61270492 7.99303205,2.61270492 C7.65841667,2.53278689 7.34239103,2.49590164 7.04495513,2.49590164 C5.65072436,2.49590164 4.72123718,3.36270492 4.6158953,4.75819672 C4.53533974,5.85860656 4.49196368,6.93442623 4.46098077,7.79508197 C3.47572436,8.16393443 2.52145085,8.52663934 1.61675,8.88319672 C0.866963675,9.17827869 0.334057692,9.71311475 0.11717735,10.3954918 C-0.105899573,11.0778689 0.0180320513,11.8278689 0.451792735,12.5040984 C0.978502137,13.3155738 1.54239103,14.170082 2.1124765,15.0245902 C1.52380128,15.9098361 0.959912393,16.7766393 0.42700641,17.6188525 C0.0242286325,18.2520492 -0.0811132479,19.0020492 0.141963675,19.6659836 C0.365040598,20.3360656 0.904143162,20.8770492 1.61675,21.1536885 L1.88320299,21.2581967 C2.7383312,21.5840164 3.61824573,21.9221311 4.49816026,22.2479508 C4.51675,22.5430328 4.53533974,22.8381148 4.55392949,23.1270492 C4.60350214,23.7971311 4.64687821,24.4303279 4.64068162,25.0696721 C4.63448504,25.7520492 4.90093803,26.4159836 5.37187821,26.8831967 C5.82422863,27.3381148 6.43149359,27.5840164 7.08213462,27.5840164 C7.36098077,27.5840164 7.63982692,27.5409836 7.91867308,27.454918 C8.52593803,27.2643443 9.1641859,27.0983607 9.78384402,26.9385246 C10.0812799,26.8586066 10.391109,26.7786885 10.700938,26.6987705 C11.3391859,27.4918033 11.9836303,28.272541 12.5908953,29.0102459 C13.1176047,29.6434426 13.8054252,29.9938525 14.5304252,29.9938525 C15.2616218,29.9938525 15.9494423,29.6434426 16.4699551,29.0040984 C17.1701688,28.1495902 17.7650406,27.4180328 18.3475192,26.6803279 C19.1096987,26.8893443 19.8842714,27.0922131 20.6340577,27.2889344 L21.2723056,27.454918 C21.5139722,27.5163934 21.7556389,27.5471311 21.991109,27.5471311 L21.991109,27.5471311 C23.3047842,27.5471311 24.3148269,26.5696721 24.3829893,25.2172131 C24.4015791,24.8790984 24.4201688,24.5409836 24.4387585,24.1967213 C24.475938,23.5389344 24.5131175,22.8627049 24.5379038,22.192623 C25.4116218,21.8668033 26.2853397,21.5286885 27.1404679,21.1967213 L27.3449551,21.1168033 C28.1071346,20.8217213 28.6524338,20.2807377 28.8755107,19.5922131 C29.0985876,18.8913934 28.9808526,18.1413934 28.5346987,17.4651639 L28.5346987,17.4651639 Z M27.2829893,19.0696721 C27.2148269,19.2786885 27.0227329,19.4508197 26.7376902,19.5614754 L26.533203,19.6413934 C25.6223056,19.9918033 24.6804252,20.3545082 23.750938,20.704918 C23.1932457,20.9139344 22.8958098,21.307377 22.8772201,21.8790984 C22.8524338,22.6168033 22.8090577,23.3668033 22.7656816,24.0983607 C22.7470919,24.442623 22.7285021,24.7807377 22.7099124,25.125 C22.6851261,25.5983607 22.4186731,25.8811475 21.991109,25.8811475 L21.991109,25.8811475 C21.8981603,25.8811475 21.8052115,25.8688525 21.7060662,25.8442623 L21.0678184,25.6782787 C20.2374765,25.4631148 19.3823483,25.2356557 18.5396132,25.0020492 C18.409485,24.9651639 18.2855534,24.9467213 18.1678184,24.9467213 C17.7898269,24.9467213 17.4676047,25.1127049 17.2011517,25.4385246 C16.5691004,26.2315574 15.9308526,27.0184426 15.1748697,27.9467213 C14.9765791,28.192623 14.7473056,28.3217213 14.5366218,28.3217213 C14.3197415,28.3217213 14.0904679,28.1864754 13.8859808,27.9405738 C13.2291432,27.147541 12.5289295,26.2991803 11.8473056,25.4446721 C11.5250833,25.045082 11.1470919,24.9590164 10.8930321,24.9590164 C10.7691004,24.9590164 10.6451688,24.977459 10.508844,25.0143443 C10.1308526,25.1188525 9.74046795,25.2233607 9.3624765,25.3217213 C8.72422863,25.4877049 8.06739103,25.6598361 7.42294658,25.8627049 C7.06974145,25.9733607 6.77230556,25.9180328 6.56162179,25.7090164 C6.40051068,25.5491803 6.31375855,25.3217213 6.31375855,25.0758197 C6.31995513,24.375 6.27038248,23.6803279 6.22700641,23.0040984 C6.20222009,22.647541 6.17743376,22.2786885 6.15884402,21.9221311 C6.12786111,21.2090164 5.68170726,20.9016393 5.30991239,20.7663934 C4.36803205,20.4221311 3.41375855,20.0594262 2.48427137,19.7028689 L2.21781838,19.5983607 C1.96995513,19.5061475 1.79645085,19.3401639 1.72828846,19.1372951 C1.66012607,18.9405738 1.70350214,18.7131148 1.83982692,18.4979508 C2.40371581,17.6127049 3.00478419,16.6844262 3.63063889,15.75 C3.95286111,15.2704918 3.95286111,14.7663934 3.63063889,14.2868852 C3.02337393,13.3893443 2.41610897,12.4672131 1.85841667,11.6004098 C1.69730556,11.3483607 1.64153632,11.102459 1.70969872,10.8995902 C1.77166453,10.7028689 1.95756197,10.5307377 2.23021154,10.4262295 C3.19687821,10.045082 4.22551068,9.65778689 5.28512607,9.25819672 C5.81183547,9.06147541 6.10307479,8.66188525 6.12166453,8.09631148 C6.15264744,7.21721311 6.1960235,6.04918033 6.28277564,4.86885246 C6.31995513,4.35245902 6.53063889,4.14959016 7.03875855,4.14959016 C7.19986966,4.14959016 7.38576709,4.17418033 7.59025427,4.22336066 C7.77615171,4.27254098 7.98063889,4.32786885 8.19751923,4.38319672 C8.85435684,4.55532787 9.59794658,4.75204918 10.3477329,4.96721311 C10.508844,5.0102459 10.6513654,5.03483607 10.7938868,5.03483607 C11.2090577,5.03483607 11.5622628,4.85040984 11.8473056,4.48770492 C12.3926047,3.78688525 12.9688868,3.08606557 13.5203825,2.40368852 L13.8178184,2.04098361 C14.016109,1.80122951 14.2453825,1.66598361 14.4622628,1.66598361 C14.6791432,1.66598361 14.9084167,1.79508197 15.1005107,2.03483607 C15.3297842,2.31147541 15.5528611,2.58811475 15.7821346,2.8647541 C16.2220919,3.39959016 16.6806389,3.95901639 17.1205962,4.50614754 C17.3932457,4.8442623 17.7278611,5.01639344 18.1120491,5.01639344 C18.2421774,5.01639344 18.3785021,4.99795082 18.5210235,4.95491803 C19.4814936,4.67827869 20.46675,4.42008197 21.4210235,4.16803279 L21.6379038,4.11270492 C21.7432457,4.08196721 21.8485876,4.06967213 21.9415363,4.06967213 C22.5549979,4.06967213 22.6479466,4.61680328 22.6603397,4.85040984 C22.6789295,5.2192623 22.6975192,5.58811475 22.7223056,5.96311475 C22.759485,6.65163934 22.8028611,7.3647541 22.833844,8.06557377 C22.8586303,8.625 23.1560662,9.03688525 23.6765791,9.22745902 C24.1599124,9.4057377 24.6494423,9.59016393 25.1265791,9.76844262 C25.6223056,9.95286885 26.1366218,10.1495902 26.650938,10.3340164 C26.9731603,10.4508197 27.1900406,10.6352459 27.2643996,10.8442623 C27.332562,11.0532787 27.2705962,11.3237705 27.0846987,11.6065574 L26.8306389,12 C26.3535021,12.7377049 25.8577756,13.5 25.3620491,14.2377049 C24.9530748,14.8463115 25.1327756,15.3688525 25.3620491,15.7008197 C25.9383312,16.5430328 26.5022201,17.4159836 27.0537158,18.2581967 L27.1342714,18.3872951 C27.2953825,18.6147541 27.3511517,18.8668033 27.2829893,19.0696721 L27.2829893,19.0696721 Z" id="Shape"></path>
                <path d="M17.7898269,11.692623 L12.9193141,16.5245902 L11.1966645,14.8155738 C10.8682457,14.4897541 10.3415363,14.4897541 10.0131175,14.8155738 C9.68469872,15.1413934 9.68469872,15.6639344 10.0131175,15.9897541 L12.3244423,18.2827869 C12.3430321,18.3012295 12.3678184,18.3196721 12.3864081,18.3381148 C12.5413226,18.4610656 12.7272201,18.522541 12.9131175,18.522541 C13.1299979,18.522541 13.3406816,18.442623 13.5017927,18.2766393 L18.9671774,12.8545082 C19.2955962,12.5286885 19.2955962,12.0061475 18.9671774,11.6803279 C18.6449551,11.3668033 18.1182457,11.3668033 17.7898269,11.692623 L17.7898269,11.692623 Z" id="Shape"></path>
            </g>
        </g>
    </g>
</svg>