<?xml version="1.0" encoding="UTF-8" standalone="no"?>
<svg width="39px" height="34px" viewBox="0 0 39 34" version="1.1" xmlns="http://www.w3.org/2000/svg" xmlns:xlink="http://www.w3.org/1999/xlink">
    <!-- Generator: Sketch 39.1 (31720) - http://www.bohemiancoding.com/sketch -->
    <title>Group 10</title>
    <desc>Created with Sketch.</desc>
    <defs></defs>
    <g id="Page-1" stroke="none" stroke-width="1" fill="none" fill-rule="evenodd">
        <g id="1920" transform="translate(-636.000000, -2224.000000)" fill="#FFFFFF">
            <g id="Group-10" transform="translate(636.000000, 2224.000000)">
                <path d="M19.5,33.4137931 C19.3262727,33.4137931 19.1596364,33.3375862 19.0485455,33.2051034 L0.139454545,10.9292414 C-0.0378181818,10.7205517 -0.0472727273,10.418069 0.118181818,10.2 L7.20909091,0.820689655 C7.32018182,0.672965517 7.49627273,0.586206897 7.68181818,0.586206897 L31.3181818,0.586206897 C31.5037273,0.586206897 31.6798182,0.672965517 31.7909091,0.820689655 L38.8818182,10.2 C39.0472727,10.418069 39.0378182,10.7205517 38.8605455,10.9292414 L19.9514545,33.2051034 C19.8403636,33.3375862 19.6737273,33.4137931 19.5,33.4137931 L19.5,33.4137931 Z M1.34609091,10.5306207 L19.5,31.9177931 L37.6539091,10.5306207 L31.0227273,1.75862069 L7.97727273,1.75862069 L1.34609091,10.5306207 L1.34609091,10.5306207 Z" id="Shape"></path>
                <path d="M38.4090909,11.137931 L0.590909091,11.137931 C0.264727273,11.137931 0,10.8764828 0,10.5517241 C0,10.2269655 0.264727273,9.96551724 0.590909091,9.96551724 L38.4090909,9.96551724 C38.7352727,9.96551724 39,10.2281379 39,10.5517241 C39,10.8753103 38.7352727,11.137931 38.4090909,11.137931 L38.4090909,11.137931 Z" id="Shape"></path>
                <path d="M19.5,33.4137931 C19.4409091,33.4137931 19.3806364,33.4055862 19.3227273,33.3868276 C19.0107273,33.2895172 18.8381818,32.960069 18.9374545,32.6517241 L26.0283636,10.3758621 C26.1264545,10.0675172 26.4609091,9.894 26.7693636,9.99365517 C27.0813636,10.0909655 27.2539091,10.4204138 27.1546364,10.7287586 L20.0637273,33.0046207 C19.9845455,33.2543448 19.7505455,33.4137931 19.5,33.4137931 L19.5,33.4137931 Z" id="Shape"></path>
                <path d="M19.5,33.4137931 C19.2494545,33.4137931 19.0154545,33.2543448 18.9362727,33.0034483 L11.8453636,10.7275862 C11.7472727,10.4192414 11.9198182,10.0897931 12.2306364,9.99248276 C12.5426364,9.89282759 12.8735455,10.0663448 12.9716364,10.3746897 L20.0625455,32.6505517 C20.1606364,32.9588966 19.9880909,33.2883448 19.6772727,33.3856552 C19.6193636,33.4055862 19.5590909,33.4137931 19.5,33.4137931 L19.5,33.4137931 Z" id="Shape"></path>
                <path d="M12.4090909,11.137931 C12.1916364,11.137931 11.9836364,11.0195172 11.8796364,10.8143448 L7.15236364,1.43503448 C7.007,1.14544828 7.12518182,0.793724138 7.41709091,0.648344828 C7.71018182,0.504137931 8.06354545,0.62137931 8.21009091,0.910965517 L12.9373636,10.2902759 C13.0839091,10.5798621 12.9645455,10.9315862 12.6726364,11.0769655 C12.5887273,11.118 12.4989091,11.137931 12.4090909,11.137931 L12.4090909,11.137931 Z" id="Shape"></path>
                <path d="M12.4090909,11.137931 C12.2861818,11.137931 12.1620909,11.0992414 12.0557273,11.0206897 C11.7945455,10.826069 11.7413636,10.4591034 11.9375455,10.2 L19.0284545,0.820689655 C19.2246364,0.561586207 19.5945455,0.51 19.8557273,0.703448276 C20.1169091,0.898068966 20.1700909,1.26503448 19.9739091,1.52413793 L12.883,10.9034483 C12.766,11.0570345 12.5887273,11.137931 12.4090909,11.137931 L12.4090909,11.137931 Z" id="Shape"></path>
                <path d="M26.5909091,11.137931 C26.4112727,11.137931 26.234,11.0570345 26.1181818,10.9034483 L19.0272727,1.52413793 C18.8310909,1.26503448 18.8842727,0.898068966 19.1454545,0.703448276 C19.4054545,0.507655172 19.7765455,0.560413793 19.9727273,0.820689655 L27.0636364,10.2 C27.2598182,10.4591034 27.2066364,10.826069 26.9454545,11.0206897 C26.8390909,11.1004138 26.715,11.137931 26.5909091,11.137931 L26.5909091,11.137931 Z" id="Shape"></path>
                <path d="M26.5909091,11.137931 C26.5022727,11.137931 26.4124545,11.118 26.3273636,11.0757931 C26.0354545,10.9304138 25.9172727,10.5786897 26.0626364,10.2891034 L30.7899091,0.909793103 C30.9364545,0.620206897 31.2898182,0.502965517 31.5829091,0.647172414 C31.8748182,0.792551724 31.993,1.14427586 31.8476364,1.43386207 L27.1203636,10.8131724 C27.0151818,11.0195172 26.8071818,11.137931 26.5909091,11.137931 L26.5909091,11.137931 Z" id="Shape"></path>
            </g>
        </g>
    </g>
</svg>