<?xml version="1.0" encoding="UTF-8" standalone="no"?>
<svg width="17px" height="21px" viewBox="0 0 17 21" version="1.1" xmlns="http://www.w3.org/2000/svg" xmlns:xlink="http://www.w3.org/1999/xlink">
    <!-- Generator: Sketch 39.1 (31720) - http://www.bohemiancoding.com/sketch -->
    <title>Group 16</title>
    <desc>Created with Sketch.</desc>
    <defs></defs>
    <g id="Page-1" stroke="none" stroke-width="1" fill="none" fill-rule="evenodd">
        <g id="1920" transform="translate(-900.000000, -898.000000)" fill="#ABABAB">
            <g id="Group-16" transform="translate(900.000000, 898.000000)">
                <path d="M14.3305663,2.16389362 L12.5917092,2.16389362 L12.5917092,0.602521277 C12.5917526,0.269961702 12.3298571,0 12.0068571,0 C11.6838571,0 11.4220051,0.269961702 11.4220051,0.602521277 L11.4220051,2.16389362 L5.37893878,2.16389362 L5.37893878,0.602521277 C5.37893878,0.269961702 5.1171301,0 4.79417347,0 C4.4711301,0 4.20932143,0.269961702 4.20932143,0.602521277 L4.20932143,2.16389362 L2.63378571,2.16389362 C1.18267092,2.16389362 0.00203826531,3.37988298 0.00203826531,4.8752617 L0.00203826531,18.2516362 C0.00203826531,19.7470596 1.18267092,20.9633617 2.63378571,20.9633617 L14.3306097,20.9633617 C15.7816378,20.9633617 16.9624439,19.7469702 16.9624439,18.2516362 L16.9624439,4.87521702 C16.9624005,3.37988298 15.7815944,2.16389362 14.3305663,2.16389362 L14.3305663,2.16389362 Z M2.63378571,3.36880213 L4.20932143,3.36880213 L4.20932143,4.11747447 C4.20932143,4.45003404 4.4711301,4.71995106 4.79417347,4.71995106 C5.11717347,4.71995106 5.37893878,4.45003404 5.37893878,4.11747447 L5.37893878,3.36880213 L11.4220051,3.36880213 L11.4220051,4.11747447 C11.4220051,4.45003404 11.6839005,4.71995106 12.0068571,4.71995106 C12.3298138,4.71995106 12.5917092,4.45003404 12.5917092,4.11747447 L12.5917092,3.36880213 L14.3305663,3.36880213 C15.1366786,3.36880213 15.792523,4.04468936 15.792523,4.8752617 L15.792523,6.37698511 L1.17174235,6.37698511 L1.17174235,4.8752617 C1.17174235,4.04468936 1.8276301,3.36880213 2.63378571,3.36880213 L2.63378571,3.36880213 Z M14.3305663,19.7581851 L2.63378571,19.7581851 C1.82767347,19.7581851 1.17174235,19.082566 1.17174235,18.2515915 L1.17174235,7.58189362 L15.7925663,7.58189362 L15.7925663,18.2516362 C15.792523,19.082566 15.1366786,19.7581851 14.3305663,19.7581851 L14.3305663,19.7581851 Z" id="Shape"></path>
                <path d="M5.46658418,9.23437021 L3.07097194,9.23437021 C2.74810204,9.23437021 2.48629337,9.50388511 2.48629337,9.83675745 L2.48629337,12.3045702 C2.48629337,12.6373979 2.74810204,12.9069128 3.07097194,12.9069128 L5.46658418,12.9069128 C5.78975765,12.9069128 6.05143622,12.6373979 6.05143622,12.3045702 L6.05143622,9.83675745 C6.05143622,9.50388511 5.78975765,9.23437021 5.46658418,9.23437021 L5.46658418,9.23437021 Z M4.88186224,11.7020936 L3.65578061,11.7020936 L3.65578061,10.439234 L4.88186224,10.439234 L4.88186224,11.7020936 L4.88186224,11.7020936 Z" id="Shape"></path>
                <path d="M9.67980867,9.27672766 L7.2842398,9.27672766 C6.96115306,9.27672766 6.69956122,9.54633191 6.69956122,9.87920426 L6.69956122,12.3470617 C6.69956122,12.6798894 6.96115306,12.9494043 7.2842398,12.9494043 L9.67980867,12.9494043 C10.0027653,12.9494043 10.2645306,12.6798894 10.2645306,12.3470617 L10.2645306,9.87920426 C10.264574,9.54633191 10.0027653,9.27672766 9.67980867,9.27672766 L9.67980867,9.27672766 Z M9.0951301,11.7445851 L7.8690051,11.7445851 L7.8690051,10.4816809 L9.09508673,10.4816809 L9.0951301,11.7445851 L9.0951301,11.7445851 L9.0951301,11.7445851 Z" id="Shape"></path>
                <path d="M13.8518342,9.27672766 L11.456352,9.27672766 C11.1333954,9.27672766 10.8715867,9.54633191 10.8715867,9.87920426 L10.8715867,12.3470617 C10.8715867,12.6798894 11.1333954,12.9494043 11.456352,12.9494043 L13.8518342,12.9494043 C14.1749643,12.9494043 14.436773,12.6798894 14.436773,12.3470617 L14.436773,9.87920426 C14.4368163,9.54633191 14.1750077,9.27672766 13.8518342,9.27672766 L13.8518342,9.27672766 Z M13.2671556,11.7445851 L12.041074,11.7445851 L12.041074,10.4816809 L13.2671556,10.4816809 L13.2671556,11.7445851 L13.2671556,11.7445851 Z" id="Shape"></path>
                <path d="M5.46658418,13.8403851 L3.07097194,13.8403851 C2.74810204,13.8403851 2.48629337,14.1103468 2.48629337,14.442817 L2.48629337,16.9113 C2.48629337,17.2441277 2.74810204,17.5136426 3.07097194,17.5136426 L5.46658418,17.5136426 C5.78975765,17.5136426 6.05143622,17.2441277 6.05143622,16.9113 L6.05143622,14.442817 C6.05143622,14.1103468 5.78975765,13.8403851 5.46658418,13.8403851 L5.46658418,13.8403851 Z M4.88186224,16.3088234 L3.65578061,16.3088234 L3.65578061,15.0456511 L4.88186224,15.0456511 L4.88186224,16.3088234 L4.88186224,16.3088234 Z" id="Shape"></path>
                <path d="M9.63856633,13.8403851 L7.24312755,13.8403851 C6.92034439,13.8403851 6.65831888,14.1103468 6.65831888,14.442817 L6.65831888,16.9113 C6.65831888,17.2441277 6.92034439,17.5136426 7.24312755,17.5136426 L9.63856633,17.5136426 C9.96178316,17.5136426 10.2235485,17.2441277 10.2235485,16.9113 L10.2235485,14.442817 C10.2235485,14.1103468 9.96178316,13.8403851 9.63856633,13.8403851 L9.63856633,13.8403851 Z M9.05388776,16.3088234 L7.82793622,16.3088234 L7.82793622,15.0456511 L9.05388776,15.0456511 L9.05388776,16.3088234 L9.05388776,16.3088234 Z" id="Shape"></path>
                <path d="M13.8108087,13.8403851 L11.4151097,13.8403851 C11.0924133,13.8403851 10.8303444,14.1103468 10.8303444,14.442817 L10.8303444,16.9113 C10.8303444,17.2441277 11.0923699,17.5136426 11.4151097,17.5136426 L13.8108087,17.5136426 C14.1337653,17.5136426 14.3957908,17.2441277 14.3957908,16.9113 L14.3957908,14.442817 C14.3957908,14.1103468 14.1337653,13.8403851 13.8108087,13.8403851 L13.8108087,13.8403851 Z M13.2259566,16.3088234 L12.0000051,16.3088234 L12.0000051,15.0456511 L13.2259566,15.0456511 L13.2259566,16.3088234 L13.2259566,16.3088234 Z" id="Shape"></path>
            </g>
        </g>
    </g>
</svg>