<?xml version="1.0" encoding="UTF-8" standalone="no"?>
<svg width="21px" height="21px" viewBox="0 0 21 21" version="1.1" xmlns="http://www.w3.org/2000/svg" xmlns:xlink="http://www.w3.org/1999/xlink">
    <!-- Generator: Sketch 39.1 (31720) - http://www.bohemiancoding.com/sketch -->
    <title>chat</title>
    <desc>Created with Sketch.</desc>
    <defs></defs>
    <g id="Page-1" stroke="none" stroke-width="1" fill="none" fill-rule="evenodd">
        <g id="1920" transform="translate(-382.000000, -4.000000)" fill="#000000">
            <g id="chat" transform="translate(382.000000, 4.000000)">
                <g id="Capa_1">
                    <g id="Group">
                        <path d="M17.9179725,3.07674419 C15.9334059,1.09217759 13.3006364,0 10.4947167,0 C7.68879704,0 5.05602748,1.09217759 3.07146089,3.07674419 C-0.764479915,6.91268499 -1.03086469,13.0528541 2.40993869,17.1951374 C2.07251797,17.8744186 1.53086892,18.6646934 0.727274841,19.0598309 C0.341016913,19.25074 0.123469345,19.6636364 0.190065539,20.089852 C0.256661734,20.5160677 0.58520296,20.8490486 1.0114186,20.9156448 C1.21120719,20.946723 1.49535095,20.9778013 1.84165116,20.9778013 C2.76955814,20.9778013 4.137,20.7602537 5.53552008,19.7524313 C7.09387104,20.5915433 8.79873362,21 10.490277,21 C13.2074017,21 15.8978879,19.9477801 17.9224123,17.9232558 C19.9069789,15.9386892 20.9991564,13.3059197 20.9991564,10.5 C20.9991564,7.69408034 19.9025391,5.06131078 17.9179725,3.07674419 L17.9179725,3.07674419 Z M17.069981,17.0752643 C14.0731522,20.072093 9.43361734,20.667019 5.78414588,18.5226216 C5.54439958,18.3805497 5.24693658,18.4249471 5.05602748,18.6158562 C5.0382685,18.6247357 5.02050951,18.638055 5.00719027,18.6513742 C3.80401903,19.5837209 2.62304651,19.7790698 1.84165116,19.7790698 L1.83721142,19.7790698 C2.73847992,19.1219873 3.30676744,18.1452431 3.63974841,17.3860465 C3.69302537,17.2572939 3.70190486,17.1241015 3.67082664,16.9997886 C3.6575074,16.8799154 3.60867019,16.7600423 3.52431501,16.6623679 C0.274420719,12.9906977 0.443131078,7.39661734 3.91501268,3.92473573 C7.54228541,0.297463002 13.4427082,0.297463002 17.0655412,3.92473573 C20.6972537,7.55200846 20.6972537,13.4479915 17.069981,17.0752643 L17.069981,17.0752643 Z" id="Shape"></path>
                        <circle id="Oval" cx="10.4947167" cy="10.5" r="0.736997886"></circle>
                        <circle id="Oval" cx="14.2951395" cy="10.5" r="0.736997886"></circle>
                        <ellipse id="Oval" cx="6.69429387" cy="10.5" rx="0.736997886" ry="0.736997886"></ellipse>
                    </g>
                </g>
            </g>
        </g>
    </g>
</svg>