<?xml version="1.0" encoding="UTF-8" standalone="no"?>
<svg width="18px" height="18px" viewBox="0 0 18 18" version="1.1" xmlns="http://www.w3.org/2000/svg" xmlns:xlink="http://www.w3.org/1999/xlink">
    <!-- Generator: Sketch 39.1 (31720) - http://www.bohemiancoding.com/sketch -->
    <title>clock (1)</title>
    <desc>Created with Sketch.</desc>
    <defs></defs>
    <g id="Page-1" stroke="none" stroke-width="1" fill="none" fill-rule="evenodd">
        <g id="1920" transform="translate(-876.000000, -2655.000000)" fill="#FFFFFF">
            <g id="clock-(1)" transform="translate(876.000000, 2655.000000)">
                <g id="Capa_1">
                    <g id="Group">
                        <path d="M9,0 C4.0374,0 0,4.0374 0,9 C0,13.9626 4.0374,18 9,18 C13.9626,18 18,13.9626 18,9 C18,4.0374 13.9626,0 9,0 L9,0 Z M9,17.4 C4.3683,17.4 0.6,13.6317 0.6,9 C0.6,4.3683 4.3683,0.6 9,0.6 C13.6317,0.6 17.4,4.3683 17.4,9 C17.4,13.6317 13.6317,17.4 9,17.4 L9,17.4 Z" id="Shape"></path>
                        <path d="M9.3,7.8063 L9.3,4.7637 C9.3,4.5978 9.1656,4.4637 9,4.4637 C8.8344,4.4637 8.7,4.5978 8.7,4.7637 L8.7,7.8063 C8.2803,7.9155 7.9518,8.244 7.8426,8.6637 L5.7,8.6637 C5.5344,8.6637 5.4,8.7978 5.4,8.9637 C5.4,9.1296 5.5344,9.2637 5.7,9.2637 L7.8426,9.2637 C7.9767,9.7797 8.4426,10.1637 9,10.1637 C9.6618,10.1637 10.2,9.6255 10.2,8.9637 C10.2,8.406 9.816,7.9404 9.3,7.8063 L9.3,7.8063 Z M9,9.5637 C8.6691,9.5637 8.4,9.2946 8.4,8.9637 C8.4,8.6328 8.6691,8.3637 9,8.3637 C9.3309,8.3637 9.6,8.6328 9.6,8.9637 C9.6,9.2946 9.3309,9.5637 9,9.5637 L9,9.5637 Z" id="Shape"></path>
                        <path d="M9,2.9637 C9.1656,2.9637 9.3,2.8296 9.3,2.6637 L9.3,2.3637 C9.3,2.1978 9.1656,2.0637 9,2.0637 C8.8344,2.0637 8.7,2.1978 8.7,2.3637 L8.7,2.6637 C8.7,2.8296 8.8344,2.9637 9,2.9637 L9,2.9637 Z" id="Shape"></path>
                        <path d="M9,14.9637 C8.8344,14.9637 8.7,15.0978 8.7,15.2637 L8.7,15.5637 C8.7,15.7296 8.8344,15.8637 9,15.8637 C9.1656,15.8637 9.3,15.7296 9.3,15.5637 L9.3,15.2637 C9.3,15.0978 9.1656,14.9637 9,14.9637 L9,14.9637 Z" id="Shape"></path>
                        <path d="M15.6,8.6637 L15.3,8.6637 C15.1344,8.6637 15,8.7978 15,8.9637 C15,9.1296 15.1344,9.2637 15.3,9.2637 L15.6,9.2637 C15.7656,9.2637 15.9,9.1296 15.9,8.9637 C15.9,8.7978 15.7656,8.6637 15.6,8.6637 L15.6,8.6637 Z" id="Shape"></path>
                        <path d="M2.7,8.6637 L2.4,8.6637 C2.2344,8.6637 2.1,8.7978 2.1,8.9637 C2.1,9.1296 2.2344,9.2637 2.4,9.2637 L2.7,9.2637 C2.8656,9.2637 3,9.1296 3,8.9637 C3,8.7978 2.8656,8.6637 2.7,8.6637 L2.7,8.6637 Z" id="Shape"></path>
                        <path d="M13.4547,4.0845 L13.2426,4.2966 C13.1253,4.4139 13.1253,4.6035 13.2426,4.7208 C13.3011,4.7793 13.3779,4.8087 13.4547,4.8087 C13.5315,4.8087 13.6083,4.7793 13.6668,4.7208 L13.8789,4.5087 C13.9962,4.3914 13.9962,4.2018 13.8789,4.0845 C13.7616,3.9672 13.572,3.9675 13.4547,4.0845 L13.4547,4.0845 Z" id="Shape"></path>
                        <path d="M4.3332,13.2063 L4.1211,13.4184 C4.0038,13.5357 4.0038,13.7253 4.1211,13.8426 C4.1796,13.9011 4.2564,13.9305 4.3332,13.9305 C4.41,13.9305 4.4868,13.9011 4.5453,13.8426 L4.7574,13.6305 C4.8747,13.5132 4.8747,13.3236 4.7574,13.2063 C4.6401,13.089 4.4502,13.0893 4.3332,13.2063 L4.3332,13.2063 Z" id="Shape"></path>
                        <path d="M13.6668,13.2063 C13.5495,13.089 13.3599,13.089 13.2426,13.2063 C13.1253,13.3236 13.1253,13.5132 13.2426,13.6305 L13.4547,13.8426 C13.5132,13.9011 13.59,13.9305 13.6668,13.9305 C13.7436,13.9305 13.8204,13.9011 13.8789,13.8426 C13.9962,13.7253 13.9962,13.5357 13.8789,13.4184 L13.6668,13.2063 L13.6668,13.2063 Z" id="Shape"></path>
                        <path d="M4.5453,4.0845 C4.428,3.9672 4.2384,3.9672 4.1211,4.0845 C4.0038,4.2018 4.0038,4.3914 4.1211,4.5087 L4.3332,4.7208 C4.3917,4.7793 4.4685,4.8087 4.5453,4.8087 C4.6221,4.8087 4.6989,4.7793 4.7574,4.7208 C4.8747,4.6035 4.8747,4.4139 4.7574,4.2966 L4.5453,4.0845 L4.5453,4.0845 Z" id="Shape"></path>
                    </g>
                </g>
            </g>
        </g>
    </g>
</svg>