<?xml version="1.0" encoding="UTF-8" standalone="no"?>
<svg width="18px" height="19px" viewBox="0 0 18 19" version="1.1" xmlns="http://www.w3.org/2000/svg" xmlns:xlink="http://www.w3.org/1999/xlink">
    <!-- Generator: Sketch 39.1 (31720) - http://www.bohemiancoding.com/sketch -->
    <title>Group 5</title>
    <desc>Created with Sketch.</desc>
    <defs></defs>
    <g id="Page-1" stroke="none" stroke-width="1" fill="none" fill-rule="evenodd">
        <g id="katalog" transform="translate(-242.000000, -589.000000)" fill="#000000">
            <g id="Group-5" transform="translate(242.000000, 589.000000)">
                <path d="M9,0.655844156 C4.0374,0.655844156 0,4.69324416 0,9.65584416 C0,14.6184442 4.0374,18.6558442 9,18.6558442 C13.9626,18.6558442 18,14.6184442 18,9.65584416 C18,4.69324416 13.9626,0.655844156 9,0.655844156 L9,0.655844156 L9,0.655844156 Z M9,18.0558442 C4.3683,18.0558442 0.6,14.2875442 0.6,9.65584416 C0.6,5.02414416 4.3683,1.25584416 9,1.25584416 C13.6317,1.25584416 17.4,5.02414416 17.4,9.65584416 C17.4,14.2875442 13.6317,18.0558442 9,18.0558442 L9,18.0558442 L9,18.0558442 Z" id="Shape"></path>
                <path d="M9.3,8.46214416 L9.3,5.41954416 C9.3,5.25364416 9.1656,5.11954416 9,5.11954416 C8.8344,5.11954416 8.7,5.25364416 8.7,5.41954416 L8.7,8.46214416 C8.2803,8.57134416 7.9518,8.89984416 7.8426,9.31954416 L5.7,9.31954416 C5.5344,9.31954416 5.4,9.45364416 5.4,9.61954416 C5.4,9.78544416 5.5344,9.91954416 5.7,9.91954416 L7.8426,9.91954416 C7.9767,10.4355442 8.4426,10.8195442 9,10.8195442 C9.6618,10.8195442 10.2,10.2813442 10.2,9.61954416 C10.2,9.06184416 9.816,8.59624416 9.3,8.46214416 L9.3,8.46214416 L9.3,8.46214416 Z M9,10.2195442 C8.6691,10.2195442 8.4,9.95044416 8.4,9.61954416 C8.4,9.28864416 8.6691,9.01954416 9,9.01954416 C9.3309,9.01954416 9.6,9.28864416 9.6,9.61954416 C9.6,9.95044416 9.3309,10.2195442 9,10.2195442 L9,10.2195442 L9,10.2195442 Z" id="Shape"></path>
                <path d="M9,3.61954416 C9.1656,3.61954416 9.3,3.48544416 9.3,3.31954416 L9.3,3.01954416 C9.3,2.85364416 9.1656,2.71954416 9,2.71954416 C8.8344,2.71954416 8.7,2.85364416 8.7,3.01954416 L8.7,3.31954416 C8.7,3.48544416 8.8344,3.61954416 9,3.61954416 L9,3.61954416 L9,3.61954416 Z" id="Shape"></path>
                <path d="M9,15.6195442 C8.8344,15.6195442 8.7,15.7536442 8.7,15.9195442 L8.7,16.2195442 C8.7,16.3854442 8.8344,16.5195442 9,16.5195442 C9.1656,16.5195442 9.3,16.3854442 9.3,16.2195442 L9.3,15.9195442 C9.3,15.7536442 9.1656,15.6195442 9,15.6195442 L9,15.6195442 L9,15.6195442 Z" id="Shape"></path>
                <path d="M15.6,9.31954416 L15.3,9.31954416 C15.1344,9.31954416 15,9.45364416 15,9.61954416 C15,9.78544416 15.1344,9.91954416 15.3,9.91954416 L15.6,9.91954416 C15.7656,9.91954416 15.9,9.78544416 15.9,9.61954416 C15.9,9.45364416 15.7656,9.31954416 15.6,9.31954416 L15.6,9.31954416 L15.6,9.31954416 Z" id="Shape"></path>
                <path d="M2.7,9.31954416 L2.4,9.31954416 C2.2344,9.31954416 2.1,9.45364416 2.1,9.61954416 C2.1,9.78544416 2.2344,9.91954416 2.4,9.91954416 L2.7,9.91954416 C2.8656,9.91954416 3,9.78544416 3,9.61954416 C3,9.45364416 2.8656,9.31954416 2.7,9.31954416 L2.7,9.31954416 L2.7,9.31954416 Z" id="Shape"></path>
                <path d="M13.4547,4.74034416 L13.2426,4.95244416 C13.1253,5.06974416 13.1253,5.25934416 13.2426,5.37664416 C13.3011,5.43514416 13.3779,5.46454416 13.4547,5.46454416 C13.5315,5.46454416 13.6083,5.43514416 13.6668,5.37664416 L13.8789,5.16454416 C13.9962,5.04724416 13.9962,4.85764416 13.8789,4.74034416 C13.7616,4.62304416 13.572,4.62334416 13.4547,4.74034416 L13.4547,4.74034416 L13.4547,4.74034416 Z" id="Shape"></path>
                <path d="M4.3332,13.8621442 L4.1211,14.0742442 C4.0038,14.1915442 4.0038,14.3811442 4.1211,14.4984442 C4.1796,14.5569442 4.2564,14.5863442 4.3332,14.5863442 C4.41,14.5863442 4.4868,14.5569442 4.5453,14.4984442 L4.7574,14.2863442 C4.8747,14.1690442 4.8747,13.9794442 4.7574,13.8621442 C4.6401,13.7448442 4.4502,13.7451442 4.3332,13.8621442 L4.3332,13.8621442 L4.3332,13.8621442 Z" id="Shape"></path>
                <path d="M13.6668,13.8621442 C13.5495,13.7448442 13.3599,13.7448442 13.2426,13.8621442 C13.1253,13.9794442 13.1253,14.1690442 13.2426,14.2863442 L13.4547,14.4984442 C13.5132,14.5569442 13.59,14.5863442 13.6668,14.5863442 C13.7436,14.5863442 13.8204,14.5569442 13.8789,14.4984442 C13.9962,14.3811442 13.9962,14.1915442 13.8789,14.0742442 L13.6668,13.8621442 L13.6668,13.8621442 L13.6668,13.8621442 Z" id="Shape"></path>
                <path d="M4.5453,4.74034416 C4.428,4.62304416 4.2384,4.62304416 4.1211,4.74034416 C4.0038,4.85764416 4.0038,5.04724416 4.1211,5.16454416 L4.3332,5.37664416 C4.3917,5.43514416 4.4685,5.46454416 4.5453,5.46454416 C4.6221,5.46454416 4.6989,5.43514416 4.7574,5.37664416 C4.8747,5.25934416 4.8747,5.06974416 4.7574,4.95244416 L4.5453,4.74034416 L4.5453,4.74034416 L4.5453,4.74034416 Z" id="Shape"></path>
            </g>
        </g>
    </g>
</svg>