<?xml version="1.0" encoding="UTF-8" standalone="no"?>
<svg width="26px" height="20px" viewBox="0 0 26 20" version="1.1" xmlns="http://www.w3.org/2000/svg" xmlns:xlink="http://www.w3.org/1999/xlink">
    <!-- Generator: Sketch 39.1 (31720) - http://www.bohemiancoding.com/sketch -->
    <title>credit-cards</title>
    <desc>Created with Sketch.</desc>
    <defs></defs>
    <g id="Page-1" stroke="none" stroke-width="1" fill="none" fill-rule="evenodd">
        <g id="1920" transform="translate(-724.000000, -5.000000)" fill="#000000">
            <g id="credit-cards" transform="translate(724.000000, 5.000000)">
                <g id="Group">
                    <path d="M25.8996082,9.57697297 L23.2022939,1.01135135 C23.0884245,0.649837838 22.8431755,0.355135135 22.511649,0.181513514 C22.1802286,0.008 21.8022204,-0.0236756757 21.4473469,0.0921081081 L7.73526531,4.57318919 C7.00259592,4.81264865 6.5978449,5.61459459 6.8328,6.36097297 L7.38155918,8.10367568 L1.39529796,8.10367568 C0.625910204,8.10367568 0,8.7412973 0,9.52508108 L0,18.5206486 C0,19.3044324 0.625910204,19.9420541 1.39529796,19.9420541 L16.7506857,19.9420541 C17.5200735,19.9420541 18.1459837,19.3044324 18.1459837,18.5206486 L18.1459837,13.6036757 L24.9970367,11.3647568 C25.7297061,11.1254054 26.1345633,10.3234595 25.8996082,9.57697297 L25.8996082,9.57697297 Z M16.7507918,18.6448649 L1.39529796,18.6448649 C1.32812245,18.6448649 1.27346939,18.5891892 1.27346939,18.5207568 L1.27346939,9.52518919 C1.27346939,9.45675676 1.32812245,9.40108108 1.39529796,9.40108108 L16.7506857,9.40108108 C16.8178612,9.40108108 16.8725143,9.45675676 16.8725143,9.52518919 L16.8725143,18.5207568 C16.8726204,18.5891892 16.8179673,18.6448649 16.7507918,18.6448649 L16.7507918,18.6448649 Z M21.929249,1.33524324 C21.9497306,1.34594595 21.9767918,1.36724324 21.9895265,1.40767568 L22.5277796,3.11686486 L8.58371429,7.67394595 L8.04546122,5.96464865 C8.02487347,5.89945946 8.06031837,5.82940541 8.1243102,5.80854054 L21.8362857,1.32745946 C21.8496571,1.32302703 21.8622857,1.3212973 21.8738531,1.3212973 C21.8966694,1.3212973 21.9156653,1.32810811 21.929249,1.33524324 L21.929249,1.33524324 Z M16.7507918,8.10367568 L11.4378776,8.10367568 L22.9168245,4.35232432 L24.6869469,9.9732973 C24.7074286,10.0385946 24.6720898,10.1086486 24.608098,10.1295135 L18.1460898,12.2412973 L18.1460898,9.52508108 C18.1460898,8.7412973 17.5201796,8.10367568 16.7507918,8.10367568 L16.7507918,8.10367568 Z" id="Shape"></path>
                    <path d="M6.00016327,11.3202162 L3.27642449,11.3202162 C2.92484082,11.3202162 2.6396898,11.6107027 2.6396898,11.9688649 C2.6396898,12.327027 2.92484082,12.6175135 3.27642449,12.6175135 L6.00016327,12.6175135 C6.35174694,12.6175135 6.63689796,12.327027 6.63689796,11.9688649 C6.63689796,11.6107027 6.35185306,11.3202162 6.00016327,11.3202162 L6.00016327,11.3202162 Z" id="Shape"></path>
                    <path d="M9.04237551,12.6175135 C9.39395918,12.6175135 9.6791102,12.327027 9.6791102,11.9688649 C9.6791102,11.6107027 9.39395918,11.3202162 9.04237551,11.3202162 L8.05193469,11.3202162 C7.70035102,11.3202162 7.4152,11.6107027 7.4152,11.9688649 C7.4152,12.327027 7.70035102,12.6175135 8.05193469,12.6175135 L9.04237551,12.6175135 L9.04237551,12.6175135 Z" id="Shape"></path>
                    <path d="M15.8342122,14.131027 C15.8342122,13.7728649 15.5490612,13.4823784 15.1974776,13.4823784 L12.0845878,13.4823784 C11.7330041,13.4823784 11.4478531,13.7728649 11.4478531,14.131027 L11.4478531,16.9418378 C11.4478531,17.3 11.7330041,17.5904865 12.0845878,17.5904865 L15.1974776,17.5904865 C15.5490612,17.5904865 15.8342122,17.3 15.8342122,16.9418378 L15.8342122,14.131027 L15.8342122,14.131027 Z M14.5607429,14.7796757 L14.5607429,16.2931892 L12.7213224,16.2931892 L12.7213224,14.7796757 L14.5607429,14.7796757 L14.5607429,14.7796757 Z" id="Shape"></path>
                </g>
            </g>
        </g>
    </g>
</svg>