<?xml version="1.0" encoding="UTF-8" standalone="no"?>
<svg width="32px" height="28px" viewBox="0 0 32 28" version="1.1" xmlns="http://www.w3.org/2000/svg" xmlns:xlink="http://www.w3.org/1999/xlink">
    <!-- Generator: Sketch 39.1 (31720) - http://www.bohemiancoding.com/sketch -->
    <title>Group 5</title>
    <desc>Created with Sketch.</desc>
    <defs></defs>
    <g id="Page-1" stroke="none" stroke-width="1" fill="none" fill-rule="evenodd">
        <g id="1920" transform="translate(-380.000000, -427.000000)" fill="#000000">
            <g id="Group-5" transform="translate(380.000000, 427.000000)">
                <path d="M15.9743784,2.7212093 C17.3582703,2.7212093 18.5536216,1.83541085 18.983027,0.532325581 C18.1637838,0.758713178 17.1195676,0.895348837 15.9743784,0.895348837 C14.8292973,0.895348837 13.7850811,0.758713178 12.9659459,0.532325581 C13.3951351,1.83530233 14.5903784,2.7212093 15.9743784,2.7212093 L15.9743784,2.7212093 Z" id="Shape"></path>
                <path d="M31.908973,4.3236124 C31.8432432,4.13846512 31.7064865,3.98620155 31.5283243,3.90328682 L25.4371892,1.08049612 C24.1415135,0.639875969 22.8215135,0.291829457 21.4886486,0.0374418605 C21.4417297,0.0282170543 21.395027,0.0237674419 21.348973,0.0237674419 C21.019027,0.0237674419 20.7235676,0.252434109 20.6500541,0.587782946 C20.1633514,2.7387907 18.2665946,4.34922481 15.9742703,4.34922481 C13.6820541,4.34922481 11.7851892,2.73889922 11.2985946,0.587782946 C11.2242162,0.252434109 10.9292973,0.0237674419 10.5995676,0.0237674419 C10.5535135,0.0237674419 10.5068108,0.0282170543 10.4598919,0.0374418605 C9.12713514,0.291829457 7.80713514,0.639875969 6.50940541,1.08049612 L0.420432432,3.90317829 C0.241189189,3.98609302 0.103459459,4.13835659 0.0408648649,4.32350388 C-0.0238918919,4.51082171 -0.0122162162,4.71300775 0.079027027,4.88968992 L2.72335135,10.1285116 C2.84713514,10.3771473 3.09891892,10.5263721 3.3652973,10.5263721 C3.43405405,10.5263721 3.50378378,10.5163876 3.57254054,10.4956589 L6.50951351,9.62179845 L6.50951351,27.199938 C6.50951351,27.5991008 6.83394595,27.9246822 7.23264865,27.9246822 L24.7162162,27.9246822 C25.1138378,27.9246822 25.4372973,27.5989922 25.4372973,27.199938 L25.4372973,9.6220155 L28.3763243,10.495876 C28.4450811,10.5166047 28.5147027,10.5265891 28.5833514,10.5265891 C28.8491892,10.5265891 29.1,10.3773643 29.2255135,10.1287287 L31.8708108,4.88990698 C31.9598919,4.71311628 31.9726486,4.51093023 31.908973,4.3236124 L31.908973,4.3236124 Z" id="Shape"></path>
            </g>
        </g>
    </g>
</svg>