<?xml version="1.0" encoding="UTF-8" standalone="no"?>
<svg width="31px" height="29px" viewBox="0 0 31 29" version="1.1" xmlns="http://www.w3.org/2000/svg" xmlns:xlink="http://www.w3.org/1999/xlink">
    <!-- Generator: Sketch 39.1 (31720) - http://www.bohemiancoding.com/sketch -->
    <title>Group 4</title>
    <desc>Created with Sketch.</desc>
    <defs></defs>
    <g id="Page-1" stroke="none" stroke-width="1" fill="none" fill-rule="evenodd">
        <g id="1920" transform="translate(-382.000000, -516.000000)" fill="#FFFFFF">
            <g id="Group-4" transform="translate(382.000000, 516.000000)">
                <path d="M24.8639787,7.89129545 C24.8685957,8.21425 24.8224255,8.53852273 24.7208511,8.85225 C24.5421064,9.40061364 24.3211489,9.92525 24.0599574,10.4228636 C26.2589787,11.5868182 27.7621489,13.8989091 27.7621489,16.5537273 C27.7621489,17.9668182 27.3360638,19.2830227 26.6078936,20.3790909 L26.8268723,23.99025 C28.9981915,22.2377273 30.3898936,19.5552273 30.3898936,16.5550455 C30.3898936,12.7257273 28.1249149,9.41577273 24.8639787,7.89129545 L24.8639787,7.89129545 Z" id="Shape"></path>
                <path d="M6.32993617,10.4215455 C6.06874468,9.92393182 5.84712766,9.39929545 5.66904255,8.85093182 C5.56746809,8.53720455 5.52129787,8.21293182 5.52525532,7.88997727 C2.26431915,9.41577273 0,12.7257273 0,16.5530682 C0,19.5545682 1.39104255,22.23575 3.5623617,23.9882727 L3.78134043,20.3777727 C3.05251064,19.2810455 2.62708511,17.9648409 2.62708511,16.55175 C2.62708511,13.89825 4.12959574,11.5861591 6.32993617,10.4215455 L6.32993617,10.4215455 Z" id="Shape"></path>
                <path d="M24.1107447,13.2154318 C24.096234,12.9715682 23.9359574,12.7613182 23.7051064,12.68025 C23.6398085,12.6578409 23.5725319,12.6459773 23.5052553,12.6459773 C23.3370638,12.6459773 23.1728298,12.7165 23.054766,12.847 C21.115617,14.9943182 18.3111064,16.3480909 15.194617,16.3480909 C12.0781277,16.3480909 9.27361702,14.9936591 7.33446809,12.847 C7.21706383,12.7171591 7.05217021,12.6459773 6.88397872,12.6459773 C6.8173617,12.6459773 6.74942553,12.6578409 6.68412766,12.68025 C6.4532766,12.7613182 6.29431915,12.9722273 6.27914894,13.2160909 L5.52261702,25.6959773 C5.47578723,26.4638182 5.74885106,27.2138636 6.27651064,27.7727727 C6.80351064,28.333 7.53959574,28.6473864 8.30931915,28.6473864 L22.081234,28.6473864 C22.8502979,28.6473864 23.5857234,28.3316818 24.1140426,27.7727727 C24.6410426,27.2125455 24.9141064,26.4625 24.8679362,25.694 L24.1107447,13.2154318 L24.1107447,13.2154318 Z" id="Shape"></path>
                <path d="M7.76055319,7.37061364 C7.58510638,7.61118182 7.5356383,7.92820455 7.62731915,8.21095455 C8.66285106,11.4029318 11.6599574,13.7202955 15.194617,13.7202955 C18.7292766,13.7202955 21.7257234,11.4055682 22.7619149,8.21490909 C22.8549149,7.93084091 22.8041277,7.61052273 22.6293404,7.36929545 C22.453234,7.12740909 22.174234,6.97515909 21.8747872,6.97515909 L8.51510638,6.97515909 C8.21631915,6.97515909 7.936,7.12806818 7.76055319,7.37061364 L7.76055319,7.37061364 Z" id="Shape"></path>
                <path d="M20.7686809,1.15143182 C20.7686809,0.738181818 20.433617,0.402704545 20.0200638,0.402704545 L10.4291915,0.402704545 C10.0156383,0.402704545 9.68057447,0.738181818 9.68057447,1.15143182 L9.68057447,4.92406818 C9.68057447,5.33731818 10.0156383,5.67279545 10.4291915,5.67279545 L20.0207234,5.67279545 C20.4342766,5.67279545 20.7693404,5.33731818 20.7693404,4.92406818 L20.7693404,1.15143182 L20.7686809,1.15143182 Z" id="Shape"></path>
                <path d="M6.77778723,5.67147727 L7.13329787,5.67147727 C7.54685106,5.67147727 7.88719149,5.35709091 7.88719149,4.94384091 L7.88719149,1.17054545 C7.88719149,0.757295455 7.54751064,0.402045455 7.13329787,0.402045455 L6.77778723,0.402045455 C5.32408511,0.402045455 4.13619149,1.59961364 4.13619149,3.05225 L4.13619149,3.06279545 C4.13619149,4.51609091 5.32408511,5.67147727 6.77778723,5.67147727 L6.77778723,5.67147727 Z" id="Shape"></path>
                <path d="M23.2565957,5.67147727 L23.6121064,5.67147727 C25.0658085,5.67147727 26.2596383,4.51477273 26.2596383,3.06279545 L26.2596383,3.05225 C26.2596383,1.60027273 25.0651489,0.402045455 23.6121064,0.402045455 L23.2565957,0.402045455 C22.8430426,0.402045455 22.5086383,0.757295455 22.5086383,1.17054545 L22.5086383,4.9445 C22.5086383,5.35775 22.8430426,5.67147727 23.2565957,5.67147727 L23.2565957,5.67147727 Z" id="Shape"></path>
            </g>
        </g>
    </g>
</svg>