<?xml version="1.0" encoding="UTF-8" standalone="no"?>
<svg width="32px" height="32px" viewBox="0 0 32 32" version="1.1" xmlns="http://www.w3.org/2000/svg" xmlns:xlink="http://www.w3.org/1999/xlink">
    <!-- Generator: Sketch 39.1 (31720) - http://www.bohemiancoding.com/sketch -->
    <title>Group 6</title>
    <desc>Created with Sketch.</desc>
    <defs></defs>
    <g id="Page-1" stroke="none" stroke-width="1" fill="none" fill-rule="evenodd">
        <g id="1920" transform="translate(-381.000000, -378.000000)" fill="#FFFFFF">
            <g id="Group-6" transform="translate(381.000000, 378.000000)">
                <path d="M18.93129,4.99284359 C18.93129,4.99284359 22.2095747,5.65657645 24.2126397,7.96085764 C26.216717,10.2651951 26.1493989,10.477891 26.9499613,12.7090615 C27.2173216,13.4369069 27.7514798,13.370826 27.9519719,13.3371388 C28.1520141,13.3044077 28.7534903,13.0031916 28.4027838,11.9687311 C28.052471,10.9325272 26.503536,5.35597891 19.5806257,3.55222496 C18.8683585,3.4173638 18.6048787,3.65272408 18.4921757,3.97834798 C18.3799789,4.30397188 18.4629315,4.87356063 18.93129,4.99284359 L18.93129,4.99284359 L18.93129,4.99284359 Z" id="Shape"></path>
                <path d="M13.0454271,4.99284359 C13.0454271,4.99284359 9.76759227,5.65657645 7.76402109,7.96085764 C5.76044991,10.2651951 5.82776801,10.477891 5.02647452,12.7090615 C4.75860808,13.4369069 4.22518102,13.370826 4.02418278,13.3371388 C3.82391564,13.3044077 3.22193322,13.0031916 3.57269596,11.9687311 C3.92351494,10.9325835 5.47143761,5.35603515 12.3956415,3.55222496 C13.1079086,3.4173638 13.3703761,3.65272408 13.483529,3.97834798 C13.596232,4.30397188 13.5137856,4.87356063 13.0454271,4.99284359 L13.0454271,4.99284359 L13.0454271,4.99284359 Z" id="Shape"></path>
                <path d="M13.0605554,26.9294903 C13.0605554,26.9294903 9.77979613,26.2796485 7.76598946,23.9833533 C5.75263269,21.687058 5.81972583,21.4744183 5.00842179,19.2466221 C4.73768717,18.520239 4.20471002,18.5894692 4.00421793,18.6236626 C3.80395079,18.6568436 3.20292443,18.9602531 3.55807381,19.9937575 C3.91344815,21.027993 5.48504745,26.5981863 12.4170685,28.3729209 C13.1293357,28.5036766 13.3903409,28.2685413 13.5025378,27.9431424 C13.6133286,27.6153814 13.5289139,27.0451178 13.0605554,26.9294903 L13.0605554,26.9294903 L13.0605554,26.9294903 Z" id="Shape"></path>
                <path d="M18.9448998,26.9689701 C18.9448998,26.9689701 22.2208225,26.2908401 24.2146081,23.9794728 C26.2088998,21.665181 26.1401195,21.4519789 26.9318524,19.2188963 C27.1962882,18.4890264 27.7299402,18.5534763 27.9319508,18.585645 C28.1328928,18.618826 28.7349315,18.9158805 28.3885554,19.9540527 C28.0412232,20.9899754 26.5172021,26.5728225 19.6015466,28.405652 C18.8902917,28.5418067 18.6257996,28.3105518 18.5116907,27.984703 C18.3970756,27.6587979 18.4776098,27.0894903 18.9448998,26.9689701 L18.9448998,26.9689701 L18.9448998,26.9689701 Z" id="Shape"></path>
                <path d="M23.068232,17.0030791 L17.7087663,17.0030791 C17.4862847,17.009884 16.6062566,17.1030721 16.6062566,18.2085624 L16.6062566,23.4560562 C16.6062566,23.4560562 16.629652,24.192225 17.3448436,24.0448787 C20.5602531,23.5043656 23.1277329,21.0924429 23.9097364,17.9671283 C24.1004429,16.9669174 23.068232,17.0030791 23.068232,17.0030791 L23.068232,17.0030791 L23.068232,17.0030791 Z" id="Shape"></path>
                <path d="M31.1586081,14.9494552 L25.5610826,14.9494552 C24.226362,14.9494552 24.1502144,15.6677961 24.1609561,15.9009631 C24.1609561,15.9275641 24.1658489,15.9529279 24.1658489,15.9790228 C24.1658489,15.9790228 24.0828963,17.0030228 25.1102707,17.0030228 L31.1586081,17.0030228 C31.6015466,17.0030228 31.9596204,16.6429807 31.9596204,16.2017293 L31.9596204,15.7511986 C31.9596204,15.3075852 31.6015466,14.9494552 31.1586081,14.9494552 L31.1586081,14.9494552 L31.1586081,14.9494552 Z" id="Shape"></path>
                <path d="M15.8271213,24.1575255 C15.7432127,24.1521828 15.6587979,24.148246 15.5748893,24.1434095 L15.5792759,24.1540949 C15.5792759,24.1540949 14.5518453,24.0068049 14.5518453,25.4473673 L14.5518453,31.1580457 C14.5518453,31.6015466 14.9109315,31.9596204 15.3533638,31.9596204 L15.8041195,31.9596204 C16.2461019,31.9596204 16.605638,31.6005343 16.605638,31.1580457 L16.605638,25.7225448 C16.6062004,24.5248787 16.1320492,24.2258559 15.8271213,24.1575255 L15.8271213,24.1575255 L15.8271213,24.1575255 Z" id="Shape"></path>
                <path d="M13.3498489,17.0030791 L8.72362742,17.0030791 C8.43118453,17.0235501 7.9145167,17.1796696 8.05235852,17.9392337 C8.74556063,20.7489912 10.8776942,22.9862355 13.6352619,23.8097434 C13.955768,23.8789736 14.5519016,23.8975888 14.5519016,23.0803796 L14.5519016,18.0582917 C14.5519016,16.956232 13.3498489,17.0030791 13.3498489,17.0030791 L13.3498489,17.0030791 L13.3498489,17.0030791 Z" id="Shape"></path>
                <path d="M7.79573989,15.945167 C7.78769772,15.7007522 7.67645694,14.9494552 6.57445343,14.9494552 L0.801293497,14.9494552 C0.358073814,14.9494552 0,15.3082601 0,15.7507487 L0,16.2012794 C0,16.6429807 0.358523726,17.0025729 0.801293497,17.0025729 L6.69981019,17.0025729 C7.76863269,17.0025729 7.80473814,16.2278805 7.796471,16.0276134 C7.796471,16.0120351 7.79332162,15.9966257 7.79332162,15.9785729 C7.79281547,15.9685624 7.79573989,15.9570896 7.79573989,15.945167 L7.79573989,15.945167 L7.79573989,15.945167 Z" id="Shape"></path>
                <path d="M23.868232,13.8445272 C23.0827979,10.9340457 20.7392056,8.6707065 17.7838453,8.00528647 C16.5768998,7.7189174 16.6062004,8.91630228 16.6062004,8.91630228 L16.6062004,13.8755149 C16.6062004,13.8755149 16.5817926,14.9495114 17.6960562,14.9495114 L22.9559789,14.9495114 C22.9560351,14.9494552 24.1492583,14.9504675 23.868232,13.8445272 L23.868232,13.8445272 L23.868232,13.8445272 Z" id="Shape"></path>
                <path d="M13.4269991,8.43225976 C10.9068163,9.27112092 8.9337267,11.2985937 8.17438751,13.854657 C8.17388136,13.8575814 7.85118189,15.1584461 8.97663707,15.1584461 L13.2786968,15.1584461 C13.6494244,15.1460172 14.5875474,14.9940594 14.5875474,13.733968 L14.5875474,9.27533885 C14.5870975,8.18469562 13.5572487,8.39913498 13.4269991,8.43225976 L13.4269991,8.43225976 L13.4269991,8.43225976 Z" id="Shape"></path>
                <path d="M15.804232,0 L15.3534763,0 C14.9109877,0 14.5519578,0.358523726 14.5519578,0.801293497 L14.5519578,6.63687873 C14.5519578,6.63687873 14.525638,7.86429525 15.6403515,7.8013638 C15.6739824,7.79990158 15.6915852,7.80479438 15.7213357,7.80479438 L15.7388822,7.80479438 C15.7671705,7.80479438 15.7939965,7.8013638 15.8218348,7.8013638 C16.1018489,7.77791213 16.6063128,7.62308612 16.6063128,6.78788049 L16.6063128,0.801293497 C16.6062004,0.358073814 16.2466643,0 15.804232,0 L15.804232,0 L15.804232,0 Z" id="Shape"></path>
            </g>
        </g>
    </g>
</svg>