<?xml version="1.0" encoding="UTF-8" standalone="no"?>
<svg width="40px" height="15px" viewBox="0 0 40 15" version="1.1" xmlns="http://www.w3.org/2000/svg" xmlns:xlink="http://www.w3.org/1999/xlink">
    <!-- Generator: Sketch 39.1 (31720) - http://www.bohemiancoding.com/sketch -->
    <title>Shape</title>
    <desc>Created with Sketch.</desc>
    <defs></defs>
    <g id="Page-1" stroke="none" stroke-width="1" fill="none" fill-rule="evenodd">
        <g id="1920" transform="translate(-376.000000, -479.000000)" fill="#FFFFFF">
            <path d="M404.655273,482.57075 L401.090182,479.6945 L390.817455,479.6945 L389.455273,479.6945 L387.411636,479.6945 L387.411636,480.74825 L389.455273,480.74825 L389.966545,484.961 C389.415273,485.06825 389.105455,485.129 389.105455,485.129 L381.236364,487.20575 L378.733818,491.1125 L376,491.057 L377.107636,493.5725 L408.788364,493.5725 C408.788364,493.5725 415.545455,485.99075 415.530909,482.93225 C415.524364,481.58225 410.392727,481.84925 404.655273,482.57075 L404.655273,482.57075 Z M390.989091,484.76975 L390.477818,480.7505 L390.817455,480.7505 L393.543273,480.7505 L394.054545,484.21025 C392.854545,484.42325 391.806545,484.6145 390.989091,484.76975 L390.989091,484.76975 Z M395.076364,484.03025 L394.566545,480.749 L398.330909,480.749 L398.955636,483.389 C397.589091,483.6035 396.275636,483.82475 395.076364,484.03025 L395.076364,484.03025 Z M399.973091,483.22775 L399.354182,480.749 L400.644364,480.749 L403.408727,482.7335 C402.262545,482.8865 401.106182,483.0545 399.973091,483.22775 L399.973091,483.22775 Z" id="Shape"></path>
        </g>
    </g>
</svg>