<?xml version="1.0" encoding="UTF-8" standalone="no"?>
<svg width="19px" height="28px" viewBox="0 0 19 28" version="1.1" xmlns="http://www.w3.org/2000/svg" xmlns:xlink="http://www.w3.org/1999/xlink">
    <!-- Generator: Sketch 39.1 (31720) - http://www.bohemiancoding.com/sketch -->
    <title>Shape</title>
    <desc>Created with Sketch.</desc>
    <defs></defs>
    <g id="Page-1" stroke="none" stroke-width="1" fill="none" fill-rule="evenodd">
        <g id="1920" transform="translate(-385.000000, -335.000000)" fill="#FFFFFF">
            <g id="hook" transform="translate(383.000000, 209.000000)">
                <g id="Capa_1">
                    <path d="M20.860825,145.168897 L19.1,146.958483 L19.1,149.172414 C19.1,151.566414 17.033275,152.068966 15.3,152.068966 C13.728225,152.068966 12.45,150.769862 12.45,149.172414 L12.45,146.427931 C13.03805,146.713241 13.7173,146.833931 14.435025,146.710345 C16.054775,146.430828 17.2,144.93331 17.2,143.263448 L17.2,139.298552 C17.2,139.253172 17.1886,139.213103 17.172925,139.175931 C17.151075,139.248345 17.11735,139.317862 17.060825,139.37531 L15.3,141.165379 L15.3,143.322345 C15.3,144.022828 14.83545,144.666345 14.15905,144.799586 C13.249425,144.979172 12.45,144.272414 12.45,143.37931 L12.45,136.528483 C14.8782,136.072759 16.725,133.908552 16.725,131.310345 C16.725,128.382414 14.380875,126 11.5,126 C8.619125,126 6.275,128.382414 6.275,131.310345 C6.275,133.908552 8.1218,136.072759 10.55,136.528483 L10.55,149.172414 C10.55,150.769862 9.271775,152.068966 7.7,152.068966 C5.966725,152.068966 3.9,151.566414 3.9,149.172414 L3.9,146.958483 L2.139175,145.168897 C2.04655,145.074759 2,144.951172 2,144.827586 L2,149.172414 C2,152.731793 4.944525,154 7.7,154 C9.254675,154 10.633125,153.233379 11.5,152.056414 C12.366875,153.233379 13.745325,154 15.3,154 C19.5028,154 21,151.506069 21,149.172414 L21,145.092138 C21,145.046759 20.9886,145.00669 20.972925,144.969517 C20.9506,145.041931 20.91735,145.111448 20.860825,145.168897 L20.860825,145.168897 Z M11.5,135 C9.567,135 8,133.433 8,131.5 C8,129.567 9.567,128 11.5,128 C13.433,128 15,129.567 15,131.5 C15,133.433 13.433,135 11.5,135 L11.5,135 Z" id="Shape"></path>
                </g>
            </g>
        </g>
    </g>
</svg>