<?xml version="1.0" encoding="UTF-8" standalone="no"?>
<svg width="27px" height="26px" viewBox="0 0 27 26" version="1.1" xmlns="http://www.w3.org/2000/svg" xmlns:xlink="http://www.w3.org/1999/xlink">
    <!-- Generator: Sketch 39.1 (31720) - http://www.bohemiancoding.com/sketch -->
    <title>Group 3</title>
    <desc>Created with Sketch.</desc>
    <defs></defs>
    <g id="Page-1" stroke="none" stroke-width="1" fill="none" fill-rule="evenodd">
        <g id="1920" transform="translate(-385.000000, -563.000000)" fill="#FFFFFF">
            <g id="Group-3" transform="translate(385.000000, 563.000000)">
                <ellipse id="Oval" cx="8.17714286" cy="18.8434862" rx="2.2922449" ry="2.29639066"></ellipse>
                <path d="M26.9779592,7.53817834 L24.8565306,7.53817834 L24.8565306,5.43499363 L23.7214286,5.43499363 L23.7214286,5.43499363 L23.7214286,3.80654352 C23.7214286,3.52501486 23.5285714,3.31524841 23.2530612,3.27108705 L3.27306122,0.0528280255 C2.9755102,0.00866666667 2.6944898,0.201872611 2.65040816,0.505481953 C2.60632653,0.803571125 2.79918367,1.08509979 3.1022449,1.12926115 L22.6304082,4.25919745 L22.6304082,5.41843312 L22.6304082,5.41843312 L0,5.41843312 L0,25.986586 L24.8565306,25.986586 L24.8565306,10.8613206 L26.9779592,10.8613206 L26.9779592,7.53817834 L26.9779592,7.53817834 L26.9779592,7.53817834 Z M9.84673469,7.06344374 L22.6083673,7.06344374 L22.6083673,11.330535 L9.84673469,11.330535 L9.84673469,7.06344374 L9.84673469,7.06344374 Z M1.84040816,7.06344374 L8.75571429,7.06344374 L8.75571429,11.330535 L1.84040816,11.330535 L1.84040816,7.06344374 L1.84040816,7.06344374 Z M8.17714286,24.7390276 C4.92061224,24.7390276 2.28673469,22.1003864 2.28673469,18.837966 C2.28673469,15.5755456 4.92061224,12.9369045 8.17714286,12.9369045 C11.4336735,12.9369045 14.067551,15.5755456 14.067551,18.837966 C14.067551,22.1003864 11.4336735,24.7390276 8.17714286,24.7390276 L8.17714286,24.7390276 Z M22.6083673,24.2477325 L16.4865306,24.2477325 C16.1889796,24.2477325 15.93,24.0103652 15.93,23.6901953 C15.93,23.3921062 16.1669388,23.1326582 16.4865306,23.1326582 L22.6083673,23.1326582 C22.9059184,23.1326582 23.164898,23.3700255 23.164898,23.6901953 C23.164898,23.9882845 22.9334694,24.2477325 22.6083673,24.2477325 L22.6083673,24.2477325 Z M22.6083673,21.8022972 L16.4865306,21.8022972 C16.1889796,21.8022972 15.93,21.5649299 15.93,21.2447601 C15.93,20.9245902 16.1669388,20.6872229 16.4865306,20.6872229 L22.6083673,20.6872229 C22.9059184,20.6872229 23.164898,20.9245902 23.164898,21.2447601 C23.164898,21.5649299 22.9334694,21.8022972 22.6083673,21.8022972 L22.6083673,21.8022972 Z M22.6083673,19.3789427 L16.4865306,19.3789427 C16.1889796,19.3789427 15.93,19.1415754 15.93,18.8214055 C15.93,18.5233163 16.1669388,18.2638684 16.4865306,18.2638684 L22.6083673,18.2638684 C22.9059184,18.2638684 23.164898,18.5012357 23.164898,18.8214055 C23.164898,19.1415754 22.9334694,19.3789427 22.6083673,19.3789427 L22.6083673,19.3789427 Z M22.6083673,16.9555881 L16.4865306,16.9555881 C16.1889796,16.9555881 15.93,16.7182208 15.93,16.398051 C15.93,16.0999618 16.1669388,15.8405138 16.4865306,15.8405138 L22.6083673,15.8405138 C22.9059184,15.8405138 23.164898,16.0778811 23.164898,16.398051 C23.164898,16.7182208 22.9334694,16.9555881 22.6083673,16.9555881 L22.6083673,16.9555881 Z M22.6083673,14.5267134 L16.4865306,14.5267134 C16.1889796,14.5267134 15.93,14.2893461 15.93,13.9691762 C15.93,13.671087 16.1669388,13.4116391 16.4865306,13.4116391 L22.6083673,13.4116391 C22.9059184,13.4116391 23.164898,13.6490064 23.164898,13.9691762 C23.164898,14.2727856 22.9334694,14.5267134 22.6083673,14.5267134 L22.6083673,14.5267134 Z" id="Shape"></path>
            </g>
        </g>
    </g>
</svg>