<?xml version="1.0" encoding="UTF-8" standalone="no"?>
<svg width="28px" height="21px" viewBox="0 0 28 21" version="1.1" xmlns="http://www.w3.org/2000/svg" xmlns:xlink="http://www.w3.org/1999/xlink">
    <!-- Generator: Sketch 39.1 (31720) - http://www.bohemiancoding.com/sketch -->
    <title>Group 7</title>
    <desc>Created with Sketch.</desc>
    <defs>
        <polygon id="path-1" points="28 4.53289916e-15 0 4.53289916e-15 0 21 28 21 28 0"></polygon>
    </defs>
    <g id="Page-1" stroke="none" stroke-width="1" fill="none" fill-rule="evenodd">
        <g id="1920" transform="translate(-1399.000000, -111.000000)">
            <g id="Group-7" transform="translate(1399.000000, 111.000000)">
                <path d="M7.5,17 C7.77468707,17 8,16.7960972 8,16.5418558 L8,9.45559538 C8,9.20199124 7.77468707,9 7.5,9 C7.2232267,9 7,9.20454002 7,9.45559538 L7,16.5418558 C7,16.7960972 7.22600834,17 7.5,17 L7.5,17 Z" id="Fill-1" fill="#242325"></path>
                <path d="M11.5,17 C11.7767733,17 12,16.7960972 12,16.5418558 L12,9.45559538 C12,9.20199124 11.7767733,9 11.5,9 C11.2253129,9 11,9.20454002 11,9.45559538 L11,16.5418558 C11,16.7960972 11.2253129,17 11.5,17 L11.5,17 Z" id="Fill-2" fill="#242325"></path>
                <path d="M16.4982554,17 C16.7739009,17 17,16.7960972 17,16.5418558 L17,9.45559538 C17,9.20199124 16.7739009,9 16.4982554,9 C16.2233077,9 16,9.20454002 16,9.45559538 L16,16.5418558 C16,16.7960972 16.2233077,17 16.4982554,17 L16.4982554,17 Z" id="Fill-3" fill="#242325"></path>
                <mask id="mask-2" fill="white">
                    <use xlink:href="#path-1"></use>
                </mask>
                <g id="Clip-5"></g>
                <path d="M20.4062708,17 C20.6324072,17 20.8142254,16.7960972 20.8142254,16.5418558 L20.8142254,9.45559538 C20.8142254,9.20199124 20.6324072,9 20.4062708,9 C20.181839,9 20.0000208,9.20454002 20.0000208,9.45559538 L20.0000208,16.5418558 C19.9977481,16.7960972 20.181839,17 20.4062708,17 L20.4062708,17 Z" id="Fill-4" fill="#242325"></path>
                <path d="M28,4.12191565 L25.8456536,4.12191565 L27.3445273,2.65400652 C27.7002253,2.30249937 27.7002253,1.73664305 27.3445273,1.38768768 L26.1863954,0.254061197 C25.8430526,-0.0846870657 25.2435031,-0.0846870657 24.8982094,0.254061197 L20.9536682,4.12191565 L7.15037507,4.12191565 L3.20583386,0.254061197 C2.85988992,-0.0846870657 2.26099073,-0.0846870657 1.9150468,0.254061197 L0.759516013,1.38768768 C0.403818017,1.73409127 0.403818017,2.30249937 0.759516013,2.65400652 L2.25838965,4.12191565 L0,4.12191565 L0,8.46759017 L1.97357115,8.46759017 L4.69950533,21 L22.5156181,21 L26.0160245,8.46759017 L28,8.46759017 L28,4.12191565 Z M21.8042221,20.0826365 L5.45381918,20.0826365 L2.93402076,8.49246998 L25.0432198,8.49246998 L21.8042221,20.0826365 Z M27.0649109,7.55277847 L0.935089064,7.55277847 L0.935089064,5.03864118 L4.51157714,5.03864118 L1.4201909,2.03583878 L2.54515897,0.902212299 L6.76411435,5.03864118 L21.3392787,5.03864118 L25.5283216,0.902212299 L26.6838524,2.00585541 L23.5898651,5.03864118 L27.0649109,5.03864118 L27.0649109,7.55277847 Z" id="Fill-6" fill="#242325"></path>
            </g>
        </g>
    </g>
</svg>