<?xml version="1.0" encoding="UTF-8" standalone="no"?>
<svg width="25px" height="19px" viewBox="0 0 25 19" version="1.1" xmlns="http://www.w3.org/2000/svg" xmlns:xlink="http://www.w3.org/1999/xlink">
    <!-- Generator: Sketch 39.1 (31720) - http://www.bohemiancoding.com/sketch -->
    <title>Group 7</title>
    <desc>Created with Sketch.</desc>
    <defs>
        <polygon id="path-1" points="24.43125 3.97067999e-15 0 3.97067999e-15 0 18.3953529 24.43125 18.3953529 24.43125 0"></polygon>
    </defs>
    <g id="Page-1" stroke="none" stroke-width="1" fill="none" fill-rule="evenodd">
        <g id="1920" transform="translate(-837.000000, -1570.000000)">
            <g id="Group-7" transform="translate(837.000000, 1570.000000)">
                <path d="M6.5,15 C6.77468707,15 7,14.821585 7,14.5991239 L7,8.39864596 C7,8.17674233 6.77468707,8 6.5,8 C6.2232267,8 6,8.17897252 6,8.39864596 L6,14.5991239 C6,14.821585 6.22600834,15 6.5,15 L6.5,15 Z" id="Fill-1" fill="#FFFFFF"></path>
                <path d="M10.5,15 C10.7767733,15 11,14.821585 11,14.5991239 L11,8.39864596 C11,8.17674233 10.7767733,8 10.5,8 C10.2253129,8 10,8.17897252 10,8.39864596 L10,14.5991239 C10,14.821585 10.2253129,15 10.5,15 L10.5,15 Z" id="Fill-2" fill="#FFFFFF"></path>
                <path d="M13.4982554,15 C13.7739009,15 14,14.821585 14,14.5991239 L14,8.39864596 C14,8.17674233 13.7739009,8 13.4982554,8 C13.2233077,8 13,8.17897252 13,8.39864596 L13,14.5991239 C13,14.821585 13.2233077,15 13.4982554,15 L13.4982554,15 Z" id="Fill-3" fill="#FFFFFF"></path>
                <mask id="mask-2" fill="white">
                    <use xlink:href="#path-1"></use>
                </mask>
                <g id="Clip-5"></g>
                <path d="M17.4062708,15.0160294 C17.6324072,15.0160294 17.8142254,14.8372059 17.8142254,14.6142353 L17.8142254,8.39955882 C17.8142254,8.17714706 17.6324072,8 17.4062708,8 C17.181839,8 17.0000208,8.17938235 17.0000208,8.39955882 L17.0000208,14.6142353 C16.9977481,14.8372059 17.181839,15.0160294 17.4062708,15.0160294 L17.4062708,15.0160294 Z" id="Fill-4" fill="#FFFFFF"></path>
                <path d="M24.4653409,3.61069853 L22.5829545,3.61069853 L23.8926136,2.32484559 C24.2034091,2.01693382 24.2034091,1.52125735 23.8926136,1.21558088 L22.8806818,0.222551471 C22.5806818,-0.0741838235 22.0568182,-0.0741838235 21.7551136,0.222551471 L18.3085227,3.61069853 L6.24772727,3.61069853 L2.80113636,0.222551471 C2.49886364,-0.0741838235 1.97556818,-0.0741838235 1.67329545,0.222551471 L0.663636364,1.21558088 C0.352840909,1.51902206 0.352840909,2.01693382 0.663636364,2.32484559 L1.97329545,3.61069853 L0,3.61069853 L0,7.41740441 L1.72443182,7.41740441 L4.10625,18.3954926 L19.6732955,18.3954926 L22.7318182,7.41740441 L24.4653409,7.41740441 L24.4653409,3.61069853 Z M19.0517045,17.5919044 L4.76534091,17.5919044 L2.56363636,7.43919853 L21.8818182,7.43919853 L19.0517045,17.5919044 Z M23.6482955,6.61605147 L0.817045455,6.61605147 L0.817045455,4.41372794 L3.94204545,4.41372794 L1.24090909,1.78334559 L2.22386364,0.790316176 L5.91022727,4.41372794 L18.6454545,4.41372794 L22.3056818,0.790316176 L23.3153409,1.75708088 L20.6119318,4.41372794 L23.6482955,4.41372794 L23.6482955,6.61605147 Z" id="Fill-6" fill="#FFFFFF"></path>
            </g>
        </g>
    </g>
</svg>