<?xml version="1.0" encoding="UTF-8" standalone="no"?>
<svg width="21px" height="21px" viewBox="0 0 21 21" version="1.1" xmlns="http://www.w3.org/2000/svg" xmlns:xlink="http://www.w3.org/1999/xlink">
    <!-- Generator: Sketch 39.1 (31720) - http://www.bohemiancoding.com/sketch -->
    <title>Group 20</title>
    <desc>Created with Sketch.</desc>
    <defs></defs>
    <g id="Page-1" stroke="none" stroke-width="1" fill="none" fill-rule="evenodd">
        <g id="1920" transform="translate(-900.000000, -406.000000)" fill="#86B53B">
            <g id="Group-20" transform="translate(900.000000, 406.000000)">
                <path d="M10.2517782,7.36728395 C10.3747908,7.51851852 10.607636,7.51851852 10.7262552,7.36728395 L12.6724895,4.9345679 C12.8306485,4.74012346 12.6856695,4.45493827 12.435251,4.45493827 L11.6708159,4.45493827 L11.6708159,0.194444444 C11.6708159,0.0864197531 11.5829498,0 11.4731172,0 L9.50491632,0 C9.39508368,0 9.30721757,0.0864197531 9.30721757,0.194444444 L9.30721757,4.45493827 L8.54278243,4.45493827 C8.29236402,4.45493827 8.14738494,4.74012346 8.30554393,4.9345679 L10.2517782,7.36728395 L10.2517782,7.36728395 Z" id="Shape"></path>
                <path d="M19.8116109,8.58580247 L17.8478033,8.58580247 L15.4139121,2.17345679 C15.2601464,1.77160494 14.807636,1.56851852 14.3990586,1.71975309 C13.9904812,1.87098765 13.7839958,2.31604938 13.9377615,2.71790123 L16.1695607,8.59012346 L4.8084728,8.59012346 L7.04027197,2.71790123 C7.19403766,2.31604938 6.9875523,1.87098765 6.5789749,1.71975309 C6.17039749,1.56851852 5.71788703,1.77160494 5.56412134,2.17345679 L3.12583682,8.58580247 L1.16642259,8.58580247 C0.529393305,8.58580247 0.0109832636,9.09567901 0.0109832636,9.72222222 L0.0109832636,11.6104938 C0.0109832636,12.237037 0.529393305,12.7469136 1.16642259,12.7469136 L2.02311715,12.7469136 L3.38943515,19.604321 C3.55198745,20.3734568 4.30763598,20.982716 5.08964435,20.982716 L5.60366109,20.982716 L8.97332636,20.982716 L10.1507322,20.982716 L10.1507322,20.982716 L10.7701883,20.982716 L10.7701883,20.982716 L12.0091004,20.982716 L15.3787657,20.982716 L15.8927824,20.982716 C16.6747908,20.982716 17.4304393,20.3734568 17.5929916,19.604321 L18.9593096,12.7469136 L19.8160042,12.7469136 C20.4530335,12.7469136 20.9714435,12.237037 20.9714435,11.6104938 L20.9714435,9.72222222 C20.9714435,9.09567901 20.4530335,8.58580247 19.8116109,8.58580247 L19.8116109,8.58580247 Z M7.59382845,15.4475309 L7.59382845,18.4203704 C7.59382845,18.8438272 7.24236402,19.1635802 6.83817992,19.1635802 C6.40763598,19.1635802 6.08253138,18.8179012 6.08253138,18.4203704 L6.08253138,17.1759259 L6.08253138,14.2592593 C6.08253138,13.8358025 6.43399582,13.5160494 6.83817992,13.5160494 C7.26872385,13.5160494 7.59382845,13.8617284 7.59382845,14.2592593 L7.59382845,15.4475309 L7.59382845,15.4475309 Z M10.0233264,15.4475309 L10.0233264,18.4203704 C10.0233264,18.8438272 9.67186192,19.1635802 9.26767782,19.1635802 C8.83713389,19.1635802 8.51202929,18.8179012 8.51202929,18.4203704 L8.51202929,17.1759259 L8.51202929,14.2592593 C8.51202929,13.8358025 8.86349372,13.5160494 9.26767782,13.5160494 C9.67186192,13.5160494 10.0233264,13.8617284 10.0233264,14.2592593 L10.0233264,15.4475309 L10.0233264,15.4475309 Z M12.4660042,17.1716049 L12.4660042,18.4160494 C12.4660042,18.8135802 12.1408996,19.1592593 11.7103556,19.1592593 C11.3061715,19.1592593 10.9547071,18.8395062 10.9547071,18.4160494 L10.9547071,15.4432099 L10.9547071,14.2506173 C10.9547071,13.8530864 11.3061715,13.5074074 11.7103556,13.5074074 C12.1145397,13.5074074 12.4660042,13.8271605 12.4660042,14.2506173 L12.4660042,17.1716049 L12.4660042,17.1716049 Z M14.8911088,17.1716049 L14.8911088,18.4160494 C14.8911088,18.8135802 14.5660042,19.1592593 14.1354603,19.1592593 C13.7312762,19.1592593 13.3798117,18.8395062 13.3798117,18.4160494 L13.3798117,15.4432099 L13.3798117,14.2506173 C13.3798117,13.8530864 13.7049163,13.5074074 14.1354603,13.5074074 C14.5396444,13.5074074 14.8911088,13.8271605 14.8911088,14.2506173 L14.8911088,17.1716049 L14.8911088,17.1716049 Z" id="Shape"></path>
            </g>
        </g>
    </g>
</svg>