<?xml version="1.0" encoding="UTF-8" standalone="no"?>
<svg width="26px" height="22px" viewBox="0 0 26 22" version="1.1" xmlns="http://www.w3.org/2000/svg" xmlns:xlink="http://www.w3.org/1999/xlink">
    <!-- Generator: Sketch 39.1 (31720) - http://www.bohemiancoding.com/sketch -->
    <title>Group 14</title>
    <desc>Created with Sketch.</desc>
    <defs></defs>
    <g id="Page-1" stroke="none" stroke-width="1" fill="none" fill-rule="evenodd">
        <g id="1920" transform="translate(-808.000000, -806.000000)" fill="#86B53B">
            <g id="Group-14" transform="translate(808.000000, 806.000000)">
                <path d="M25.780569,13.9989648 C25.5708879,13.695608 25.1516379,13.6173367 24.8442328,13.8241809 L17.5022586,18.7622412 L15.8716552,16.6094472 C15.7006379,16.3843618 15.3963707,16.2803317 15.110931,16.3740804 C14.7539914,16.4912663 14.5608966,16.8716784 14.6796897,17.2237889 L16.0142069,21.1799196 C16.0646379,21.3269548 16.1468966,21.4723317 16.2585172,21.5952663 C16.700069,22.081809 17.4578793,22.1232663 17.9512069,21.6876884 L18.0382845,21.6108543 L25.673431,14.868794 C25.9217759,14.6497889 25.9733276,14.2777789 25.780569,13.9989648 L25.780569,13.9989648 Z" id="Shape"></path>
                <path d="M13.4719224,19.3109146 L1.34482759,19.3109146 L1.34482759,1.34719598 L19.0999138,1.34719598 L19.0999138,15.1467236 C19.0999138,15.5129849 19.4010431,15.8100402 19.7723276,15.8100402 C20.1436121,15.8100402 20.4447414,15.5129849 20.4447414,15.1467236 L20.4447414,0.683879397 C20.4447414,0.31761809 20.1436121,0.0205628141 19.7723276,0.0205628141 L0.672413793,0.0205628141 C0.30112931,0.0205628141 0,0.31761809 0,0.683879397 L0,19.9742312 C0,20.3404925 0.30112931,20.6375477 0.672413793,20.6375477 L13.4719224,20.6375477 C13.8432069,20.6375477 14.1443362,20.3404925 14.1443362,19.9742312 C14.1443362,19.6078593 13.8432069,19.3109146 13.4719224,19.3109146 L13.4719224,19.3109146 Z" id="Shape"></path>
                <path d="M15.6553621,4.18497487 L4.78926724,4.18497487 C4.41798276,4.18497487 4.11685345,4.48203015 4.11685345,4.84829146 C4.11685345,5.21455276 4.41798276,5.51160804 4.78926724,5.51160804 L15.6553621,5.51160804 C16.0266466,5.51160804 16.3277759,5.21455276 16.3277759,4.84829146 C16.3277759,4.48203015 16.0267586,4.18497487 15.6553621,4.18497487 L15.6553621,4.18497487 Z" id="Shape"></path>
                <path d="M15.6553621,7.0521608 L4.78926724,7.0521608 C4.41798276,7.0521608 4.11685345,7.34921608 4.11685345,7.71547739 C4.11685345,8.08173869 4.41798276,8.37879397 4.78926724,8.37879397 L15.6553621,8.37879397 C16.0266466,8.37879397 16.3277759,8.08173869 16.3277759,7.71547739 C16.3277759,7.34921608 16.0267586,7.0521608 15.6553621,7.0521608 L15.6553621,7.0521608 Z" id="Shape"></path>
                <path d="M15.6553621,9.91934673 L4.78926724,9.91934673 C4.41798276,9.91934673 4.11685345,10.216402 4.11685345,10.5826633 C4.11685345,10.9489246 4.41798276,11.2459799 4.78926724,11.2459799 L15.6553621,11.2459799 C16.0266466,11.2459799 16.3277759,10.9489246 16.3277759,10.5826633 C16.3277759,10.216402 16.0267586,9.91934673 15.6553621,9.91934673 L15.6553621,9.91934673 Z" id="Shape"></path>
                <path d="M16.3277759,13.4497387 C16.3277759,13.0834774 16.0266466,12.7864221 15.6553621,12.7864221 L4.78926724,12.7864221 C4.41798276,12.7864221 4.11685345,13.0834774 4.11685345,13.4497387 C4.11685345,13.816 4.41798276,14.1130553 4.78926724,14.1130553 L15.6553621,14.1130553 C16.0267586,14.1130553 16.3277759,13.8161106 16.3277759,13.4497387 L16.3277759,13.4497387 Z" id="Shape"></path>
                <path d="M4.78926724,15.5137588 C4.41798276,15.5137588 4.11685345,15.8108141 4.11685345,16.1770754 C4.11685345,16.5433367 4.41798276,16.840392 4.78926724,16.840392 L10.2222586,16.840392 C10.5935431,16.840392 10.8946724,16.5433367 10.8946724,16.1770754 C10.8946724,15.8108141 10.5935431,15.5137588 10.2222586,15.5137588 L4.78926724,15.5137588 L4.78926724,15.5137588 Z" id="Shape"></path>
            </g>
        </g>
    </g>
</svg>