<?xml version="1.0" encoding="UTF-8" standalone="no"?>
<svg width="24px" height="19px" viewBox="0 0 24 19" version="1.1" xmlns="http://www.w3.org/2000/svg" xmlns:xlink="http://www.w3.org/1999/xlink">
    <!-- Generator: Sketch 39.1 (31720) - http://www.bohemiancoding.com/sketch -->
    <title>Group 18</title>
    <desc>Created with Sketch.</desc>
    <defs></defs>
    <g id="Page-1" stroke="none" stroke-width="1" fill="none" fill-rule="evenodd">
        <g id="1920" transform="translate(-868.000000, -809.000000)" fill="#86B53B">
            <g id="Group-18" transform="translate(868.000000, 809.000000)">
                <path d="M22.5,3.65384615 C22.0865625,3.65384615 21.75,3.32591346 21.75,2.92307692 C21.75,2.11594231 21.078375,1.46153846 20.25,1.46153846 L5.25,1.46153846 C5.25,0.654403846 4.578375,0 3.75,0 C2.921625,0 2.25,0.654403846 2.25,1.46153846 L1.5073125,1.46153846 C0.6789375,1.46153846 0,2.12306731 0,2.93020192 L0,5.83898317 C0,6.64616346 0.6789375,7.30769231 1.5073125,7.30769231 L2.25,7.30769231 L24,7.30769231 L24,5.11538462 C24,4.30825 23.328375,3.65384615 22.5,3.65384615 L22.5,3.65384615 Z" id="Shape"></path>
                <path d="M24,8.76923077 L2.25,8.76923077 L2.25,9.5 C2.25,10.3071346 2.921625,10.9615385 3.75,10.9615385 L8.25,10.9615385 C8.25,13.3793798 10.2685781,15.3461538 12.75,15.3461538 L16.0663594,15.3461538 L16.5241875,17.8000313 C16.6537969,18.4947644 17.2748906,19 18,19 L22.5,19 C22.9493438,19 23.37525,18.8037428 23.6601563,18.4651226 C23.9450625,18.1265024 24.0589688,17.6811899 23.9707031,17.2519087 L22.5296719,10.2304038 C23.3445,10.2150577 24,9.56672837 24,8.76923077 L24,8.76923077 Z M12.75,13.8846154 C11.0958281,13.8846154 9.75,12.5732957 9.75,10.9615385 L13.125,10.9615385 C13.125,11.364375 12.7884375,11.6923077 12.375,11.6923077 C11.9608125,11.6923077 11.625,12.0195096 11.625,12.4230769 C11.625,12.8266442 11.9608125,13.1538462 12.375,13.1538462 C13.6157344,13.1538462 14.625,12.1704591 14.625,10.9615385 L15.2482969,10.9615385 L15.7936875,13.8846154 L12.75,13.8846154 L12.75,13.8846154 Z" id="Shape"></path>
            </g>
        </g>
    </g>
</svg>