<?xml version="1.0" encoding="UTF-8" standalone="no"?>
<svg width="24px" height="22px" viewBox="0 0 24 22" version="1.1" xmlns="http://www.w3.org/2000/svg" xmlns:xlink="http://www.w3.org/1999/xlink">
    <!-- Generator: Sketch 39.1 (31720) - http://www.bohemiancoding.com/sketch -->
    <title>Group 17</title>
    <desc>Created with Sketch.</desc>
    <defs></defs>
    <g id="Page-1" stroke="none" stroke-width="1" fill="none" fill-rule="evenodd">
        <g id="1920" transform="translate(-840.000000, -806.000000)" fill="#86B53B">
            <g id="Group-17" transform="translate(840.000000, 806.000000)">
                <path d="M4.30941176,3.91384112 L14.0867899,3.91384112 C14.4208739,3.91384112 14.6918319,4.19007477 14.6918319,4.53066355 C14.6918319,4.87125234 14.4208739,5.14748598 14.0867899,5.14748598 L4.30941176,5.14748598 C3.97532773,5.14748598 3.70436975,4.87125234 3.70436975,4.53066355 C3.70436975,4.19007477 3.97522689,3.91384112 4.30941176,3.91384112 L4.30941176,3.91384112 Z M4.30941176,6.57995327 L14.0867899,6.57995327 C14.4208739,6.57995327 14.6918319,6.85618692 14.6918319,7.1967757 C14.6918319,7.53736449 14.4208739,7.81359813 14.0867899,7.81359813 L4.30941176,7.81359813 C3.97532773,7.81359813 3.70436975,7.53736449 3.70436975,7.1967757 C3.70436975,6.85618692 3.97522689,6.57995327 4.30941176,6.57995327 L4.30941176,6.57995327 Z M4.30941176,9.24616822 L14.0867899,9.24616822 C14.4208739,9.24616822 14.6918319,9.52240187 14.6918319,9.86299065 C14.6918319,10.2035794 14.4208739,10.4798131 14.0867899,10.4798131 L4.30941176,10.4798131 C3.97532773,10.4798131 3.70436975,10.2035794 3.70436975,9.86299065 C3.70436975,9.52240187 3.97522689,9.24616822 4.30941176,9.24616822 L4.30941176,9.24616822 Z M4.30941176,11.9123832 L14.0867899,11.9123832 C14.4208739,11.9123832 14.6918319,12.1886168 14.6918319,12.5292056 C14.6918319,12.8697944 14.4208739,13.146028 14.0867899,13.146028 L4.30941176,13.146028 C3.97532773,13.146028 3.70436975,12.8697944 3.70436975,12.5292056 C3.70436975,12.1886168 3.97522689,11.9123832 4.30941176,11.9123832 L4.30941176,11.9123832 Z" id="Shape"></path>
                <path d="M4.30941176,5.14748598 L14.0867899,5.14748598 C14.4208739,5.14748598 14.6918319,4.87125234 14.6918319,4.53066355 C14.6918319,4.19007477 14.4208739,3.91384112 14.0867899,3.91384112 L4.30941176,3.91384112 C3.97532773,3.91384112 3.70436975,4.19007477 3.70436975,4.53066355 C3.70436975,4.87125234 3.97522689,5.14748598 4.30941176,5.14748598 L4.30941176,5.14748598 Z" id="Shape"></path>
                <path d="M4.30941176,7.81359813 L14.0867899,7.81359813 C14.4208739,7.81359813 14.6918319,7.53736449 14.6918319,7.1967757 C14.6918319,6.85618692 14.4208739,6.57995327 14.0867899,6.57995327 L4.30941176,6.57995327 C3.97532773,6.57995327 3.70436975,6.85618692 3.70436975,7.1967757 C3.70436975,7.53736449 3.97522689,7.81359813 4.30941176,7.81359813 L4.30941176,7.81359813 Z" id="Shape"></path>
                <path d="M4.30941176,10.4798131 L14.0867899,10.4798131 C14.4208739,10.4798131 14.6918319,10.2035794 14.6918319,9.86299065 C14.6918319,9.52240187 14.4208739,9.24616822 14.0867899,9.24616822 L4.30941176,9.24616822 C3.97532773,9.24616822 3.70436975,9.52240187 3.70436975,9.86299065 C3.70436975,10.2035794 3.97522689,10.4798131 4.30941176,10.4798131 L4.30941176,10.4798131 Z" id="Shape"></path>
                <path d="M4.30941176,13.146028 L14.0867899,13.146028 C14.4208739,13.146028 14.6918319,12.8697944 14.6918319,12.5292056 C14.6918319,12.1886168 14.4208739,11.9123832 14.0867899,11.9123832 L4.30941176,11.9123832 C3.97532773,11.9123832 3.70436975,12.1886168 3.70436975,12.5292056 C3.70436975,12.8697944 3.97522689,13.146028 4.30941176,13.146028 L4.30941176,13.146028 Z" id="Shape"></path>
                <path d="M23.9781176,8.87823364 C23.9781176,8.7146729 23.9143866,8.55779439 23.8009412,8.44203738 L22.1515966,6.76068224 C22.0381513,6.64502804 21.8842689,6.58005607 21.7237311,6.58005607 C21.5631933,6.58005607 21.4094118,6.64502804 21.2958655,6.76068224 L18.3961008,9.71690654 L18.3961008,0.658149533 C18.3961008,0.317560748 18.1252437,0.0413271028 17.7910588,0.0413271028 L0.605042017,0.0413271028 C0.270857143,0.0413271028 0,0.317560748 0,0.658149533 L0,21.3195421 C0,21.6601308 0.270857143,21.9363645 0.605042017,21.9363645 L17.7911597,21.9363645 C18.1253445,21.9363645 18.3962017,21.6601308 18.3962017,21.3195421 L18.3962017,14.8244019 L23.8009412,9.31442991 C23.9143866,9.1987757 23.9781176,9.0418972 23.9781176,8.87823364 L23.9781176,8.87823364 Z M1.21008403,20.7027196 L1.21008403,1.27497196 L17.1861176,1.27497196 L17.1861176,10.9505514 L13.6273613,14.5785981 L4.30941176,14.5785981 C3.97532773,14.5785981 3.70436975,14.8548318 3.70436975,15.1954206 C3.70436975,15.5360093 3.97532773,15.812243 4.30941176,15.812243 L12.4172773,15.812243 L12.3131092,15.9184393 C12.2347563,15.9983178 12.179395,16.0986542 12.1531765,16.2084486 L11.7339832,17.9612523 L9.19805042,17.9612523 C8.86396639,17.9612523 8.5930084,18.237486 8.5930084,18.5780748 C8.5930084,18.9186636 8.86396639,19.1948972 9.19805042,19.1948972 L12.2091429,19.1948972 C12.2568403,19.1948972 12.3049412,19.1891402 12.352437,19.1773178 L14.5335126,18.6352336 C14.6412101,18.6085047 14.7396303,18.5520654 14.8179832,18.4721869 L17.185916,16.0581495 L17.185916,20.7029252 L1.21008403,20.7029252 L1.21008403,20.7027196 Z M14.0822521,17.4773551 L13.0327059,17.738271 L13.2886387,16.6682897 L21.7237311,8.06896262 L22.5174454,8.87813084 L14.0822521,17.4773551 L14.0822521,17.4773551 Z" id="Shape"></path>
            </g>
        </g>
    </g>
</svg>