<?xml version="1.0" encoding="UTF-8" standalone="no"?>
<svg width="21px" height="21px" viewBox="0 0 21 21" version="1.1" xmlns="http://www.w3.org/2000/svg" xmlns:xlink="http://www.w3.org/1999/xlink">
    <!-- Generator: Sketch 39.1 (31720) - http://www.bohemiancoding.com/sketch -->
    <title>Group 2</title>
    <desc>Created with Sketch.</desc>
    <defs></defs>
    <g id="Page-1" stroke="none" stroke-width="1" fill="none" fill-rule="evenodd">
        <g id="1920" transform="translate(-576.000000, -234.000000)" fill="#797979">
            <g id="Group-2" transform="translate(576.000000, 234.000000)">
                <path d="M20.389963,17.6109198 L15.5800556,12.8006235 C14.8633765,13.9152222 13.9149198,14.8632037 12.800321,15.5799259 L17.6106173,20.3902222 C18.3785432,21.1579753 19.6236358,21.1579753 20.3899198,20.3902222 C21.1578889,19.6237222 21.1578889,18.3786296 20.389963,17.6109198 L20.389963,17.6109198 Z" id="Shape"></path>
                <path d="M15.724463,7.86225309 C15.724463,3.52043827 12.2041975,0 7.8622963,0 C3.52048148,0 4.32098766e-05,3.52043827 4.32098766e-05,7.86225309 C4.32098766e-05,12.2040679 3.52048148,15.7243333 7.8622963,15.7243333 C12.2041975,15.7243333 15.724463,12.2040679 15.724463,7.86225309 L15.724463,7.86225309 Z M7.8622963,13.758716 C4.61066667,13.758716 1.96566049,11.1139259 1.96566049,7.8622963 C1.96566049,4.61066667 4.61066667,1.96566049 7.8622963,1.96566049 C11.1138395,1.96566049 13.7590617,4.61066667 13.7590617,7.8622963 C13.7590617,11.1139259 11.1138395,13.758716 7.8622963,13.758716 L7.8622963,13.758716 Z" id="Shape"></path>
                <path d="M3.27604321,7.86225309 L4.58625309,7.86225309 C4.58625309,6.05595062 6.05599383,4.58633951 7.86225309,4.58633951 L7.86225309,3.276 C5.33374074,3.276 3.27604321,5.33369753 3.27604321,7.86225309 L3.27604321,7.86225309 Z" id="Shape"></path>
            </g>
        </g>
    </g>
</svg>