<?xml version="1.0" encoding="UTF-8" standalone="no"?>
<svg width="39px" height="26px" viewBox="0 0 39 26" version="1.1" xmlns="http://www.w3.org/2000/svg" xmlns:xlink="http://www.w3.org/1999/xlink">
    <!-- Generator: Sketch 39.1 (31720) - http://www.bohemiancoding.com/sketch -->
    <title>megaphone</title>
    <desc>Created with Sketch.</desc>
    <defs></defs>
    <g id="Page-1" stroke="none" stroke-width="1" fill="none" fill-rule="evenodd">
        <g id="1920" transform="translate(-637.000000, -1213.000000)" fill="#FFFFFF">
            <g id="megaphone" transform="translate(637.000000, 1213.000000)">
                <g id="Capa_1">
                    <g id="Group">
                        <path d="M27.3,0 C25.8661,0 24.7,1.1661 24.7,2.6 L24.7,3.42355 L4.52075,9.78315 C4.37515,8.66775 3.4294,7.8 2.275,7.8 C1.0205,7.8 0,8.8205 0,10.075 L0,15.925 C0,17.1795 1.0205,18.2 2.275,18.2 C3.4294,18.2 4.37515,17.33225 4.52075,16.21685 L5.90785,16.65365 C5.70245,16.87855 5.538,17.14635 5.4379,17.45445 C5.0622,18.6134 5.6992,19.8627 6.85945,20.2384 L14.2792,22.6421 L14.27985,22.6421 C14.5054,22.7149 14.73355,22.75 14.95845,22.75 C15.8912,22.75 16.76025,22.15395 17.06315,21.2199 C17.1743,20.8754 17.1873,20.5257 17.1327,20.1903 L24.7,22.57645 L24.7,23.4 C24.7,24.8339 25.8661,26 27.3,26 C28.7339,26 29.9,24.8339 29.9,23.4 L29.9,2.6 C29.9,1.1661 28.7339,0 27.3,0 L27.3,0 Z M15.8262,20.82015 C15.6715,21.2979 15.1567,21.56115 14.6796,21.4058 L7.25985,19.0021 C6.7821,18.8474 6.51885,18.33325 6.6742,17.8555 C6.82955,17.3784 7.34305,17.11645 7.82015,17.2705 L15.2412,19.6742 C15.7183,19.8289 15.98025,20.34305 15.8262,20.82015 L15.8262,20.82015 Z M3.25,15.925 C3.25,16.46255 2.81255,16.9 2.275,16.9 C1.73745,16.9 1.3,16.46255 1.3,15.925 L1.3,10.075 C1.3,9.53745 1.73745,9.1 2.275,9.1 C2.81255,9.1 3.25,9.53745 3.25,10.075 L3.25,10.18355 L3.25,15.81645 L3.25,15.925 L3.25,15.925 Z M4.55,14.8629 L4.55,11.1371 L24.7,4.78595 L24.7,21.2134 L4.55,14.8629 L4.55,14.8629 Z M28.6,23.4 C28.6,24.11695 28.01695,24.7 27.3,24.7 C26.58305,24.7 26,24.11695 26,23.4 L26,22.98595 L26,3.01405 L26,2.6 C26,1.88305 26.58305,1.3 27.3,1.3 C28.01695,1.3 28.6,1.88305 28.6,2.6 L28.6,23.4 L28.6,23.4 Z" id="Shape"></path>
                        <path d="M35.75,12.35 L35.1,12.35 C34.74055,12.35 34.45,12.64055 34.45,13 C34.45,13.35945 34.74055,13.65 35.1,13.65 L35.75,13.65 C36.10945,13.65 36.4,13.35945 36.4,13 C36.4,12.64055 36.10945,12.35 35.75,12.35 L35.75,12.35 Z" id="Shape"></path>
                        <path d="M32.5,13.65 L33.15,13.65 C33.50945,13.65 33.8,13.35945 33.8,13 C33.8,12.64055 33.50945,12.35 33.15,12.35 L32.5,12.35 C32.14055,12.35 31.85,12.64055 31.85,13 C31.85,13.35945 32.14055,13.65 32.5,13.65 L32.5,13.65 Z" id="Shape"></path>
                        <path d="M38.35,12.35 L37.7,12.35 C37.34055,12.35 37.05,12.64055 37.05,13 C37.05,13.35945 37.34055,13.65 37.7,13.65 L38.35,13.65 C38.70945,13.65 39,13.35945 39,13 C39,12.64055 38.70945,12.35 38.35,12.35 L38.35,12.35 Z" id="Shape"></path>
                        <path d="M34.3382,4.2484 C34.5046,4.2484 34.671,4.1847 34.79775,4.05795 L35.2573,3.5984 C35.51145,3.34425 35.51145,2.93345 35.2573,2.6793 C35.00315,2.42515 34.59235,2.42515 34.3382,2.6793 L33.87865,3.13885 C33.6245,3.393 33.6245,3.8038 33.87865,4.05795 C34.0054,4.1847 34.1718,4.2484 34.3382,4.2484 L34.3382,4.2484 Z" id="Shape"></path>
                        <path d="M36.17705,2.40955 C36.34345,2.40955 36.50985,2.34585 36.6366,2.2191 L37.09615,1.75955 C37.3503,1.5054 37.3503,1.0946 37.09615,0.84045 C36.842,0.5863 36.4312,0.5863 36.17705,0.84045 L35.7175,1.3 C35.46335,1.55415 35.46335,1.96495 35.7175,2.2191 C35.8449,2.34585 36.01065,2.40955 36.17705,2.40955 L36.17705,2.40955 Z" id="Shape"></path>
                        <path d="M32.5,6.0866 C32.6664,6.0866 32.8328,6.0229 32.95955,5.89615 L33.4191,5.4366 C33.67325,5.18245 33.67325,4.77165 33.4191,4.5175 C33.16495,4.26335 32.75415,4.26335 32.5,4.5175 L32.04045,4.97705 C31.7863,5.2312 31.7863,5.642 32.04045,5.89615 C32.1672,6.02355 32.3336,6.0866 32.5,6.0866 L32.5,6.0866 Z" id="Shape"></path>
                        <path d="M32.9108,8.515 L32.2946,8.7204 C31.954,8.83415 31.77005,9.20205 31.8838,9.54265 C31.9748,9.815 32.22765,9.98725 32.5,9.98725 C32.5676,9.98725 32.6378,9.9762 32.7054,9.95345 L33.3216,9.74805 C33.6622,9.6343 33.84615,9.2664 33.7324,8.9258 C33.61865,8.5852 33.25075,8.4006 32.9108,8.515 L32.9108,8.515 Z" id="Shape"></path>
                        <path d="M34.96675,9.165 C35.03435,9.165 35.10455,9.15395 35.17215,9.1312 L35.78835,8.9258 C36.12895,8.81205 36.3129,8.44415 36.19915,8.10355 C36.0854,7.76295 35.71815,7.57835 35.3769,7.69275 L34.7607,7.89815 C34.4201,8.0119 34.23615,8.3798 34.3499,8.7204 C34.4409,8.99275 34.6944,9.165 34.96675,9.165 L34.96675,9.165 Z" id="Shape"></path>
                        <path d="M36.81665,7.89685 C36.90765,8.16985 37.16115,8.3421 37.4335,8.3421 C37.5011,8.3421 37.57065,8.33105 37.63825,8.30895 L38.25445,8.1042 C38.59505,7.99045 38.77965,7.62255 38.66655,7.28195 C38.5528,6.94135 38.18425,6.75805 37.8443,6.86985 L37.2281,7.0746 C36.8875,7.189 36.70355,7.5569 36.81665,7.89685 L36.81665,7.89685 Z" id="Shape"></path>
                        <path d="M36.6366,23.7809 C36.38245,23.52675 35.97165,23.52675 35.7175,23.7809 C35.46335,24.03505 35.46335,24.44585 35.7175,24.7 L36.17705,25.15955 C36.30445,25.2863 36.4702,25.35 36.6366,25.35 C36.803,25.35 36.9694,25.2863 37.09615,25.15955 C37.3503,24.9054 37.3503,24.4946 37.09615,24.24045 L36.6366,23.7809 L36.6366,23.7809 Z" id="Shape"></path>
                        <path d="M34.79775,21.94205 C34.5436,21.6879 34.1328,21.6879 33.87865,21.94205 C33.6245,22.1962 33.6245,22.607 33.87865,22.86115 L34.3382,23.3207 C34.46495,23.44745 34.63135,23.51115 34.79775,23.51115 C34.96415,23.51115 35.13055,23.44745 35.2573,23.3207 C35.51145,23.06655 35.51145,22.65575 35.2573,22.4016 L34.79775,21.94205 L34.79775,21.94205 Z" id="Shape"></path>
                        <path d="M32.95955,20.10385 C32.7054,19.8497 32.2946,19.8497 32.04045,20.10385 C31.7863,20.358 31.7863,20.7688 32.04045,21.02295 L32.5,21.4825 C32.62675,21.60925 32.79315,21.67295 32.95955,21.67295 C33.12595,21.67295 33.29235,21.60925 33.4191,21.4825 C33.67325,21.22835 33.67325,20.81755 33.4191,20.5634 L32.95955,20.10385 L32.95955,20.10385 Z" id="Shape"></path>
                        <path d="M34.76135,18.10185 L35.37755,18.30725 C35.44515,18.33 35.51535,18.34105 35.58295,18.34105 C35.8553,18.34105 36.1088,18.1688 36.19915,17.89645 C36.3129,17.5565 36.1296,17.18795 35.78835,17.0742 L35.17215,16.8688 C34.83285,16.75375 34.46365,16.939 34.3499,17.2796 C34.23615,17.6202 34.4201,17.9881 34.76135,18.10185 L34.76135,18.10185 Z" id="Shape"></path>
                        <path d="M33.32225,16.2526 L32.70605,16.0472 C32.3661,15.93215 31.99755,16.1174 31.8838,16.458 C31.77005,16.7986 31.95335,17.1665 32.2946,17.28025 L32.9108,17.48565 C32.9784,17.5084 33.0486,17.51945 33.1162,17.51945 C33.38855,17.51945 33.64205,17.3472 33.7324,17.07485 C33.84615,16.73425 33.66285,16.36635 33.32225,16.2526 L33.32225,16.2526 Z" id="Shape"></path>
                        <path d="M38.2551,17.8958 L37.6389,17.69105 C37.2996,17.5786 36.92975,17.7619 36.81665,18.10315 C36.70355,18.4431 36.8875,18.81165 37.22875,18.9254 L37.84495,19.13015 C37.91255,19.15225 37.9821,19.1633 38.0497,19.1633 C38.32205,19.1633 38.5762,18.99105 38.66655,18.71805 C38.77965,18.37745 38.5957,18.00955 38.2551,17.8958 L38.2551,17.8958 Z" id="Shape"></path>
                    </g>
                </g>
            </g>
        </g>
    </g>
</svg>