<?xml version="1.0" encoding="UTF-8" standalone="no"?>
<svg width="33px" height="32px" viewBox="0 0 33 32" version="1.1" xmlns="http://www.w3.org/2000/svg" xmlns:xlink="http://www.w3.org/1999/xlink">
    <!-- Generator: Sketch 39.1 (31720) - http://www.bohemiancoding.com/sketch -->
    <title>Shape</title>
    <desc>Created with Sketch.</desc>
    <defs></defs>
    <g id="Page-1" stroke="none" stroke-width="1" fill="none" fill-rule="evenodd">
        <g id="1920" transform="translate(-639.000000, -774.000000)" fill="#FFFFFF">
            <path d="M671.24496,788.487333 C671.89374,787.848667 672.12276,786.911333 671.84292,786.04 C671.56242,785.168667 670.8318,784.546667 669.9342,784.414667 L661.95348,783.243333 C661.61358,783.193333 661.31988,782.978 661.16808,782.666667 L657.60012,775.362 C657.1995,774.541333 656.38638,774.031333 655.4802,774.031333 C654.57468,774.031333 653.76156,774.541333 653.36094,775.362 L649.79232,782.666667 C649.64052,782.978 649.34616,783.193333 649.00626,783.243333 L641.02554,784.415333 C640.1286,784.546667 639.39798,785.168667 639.11748,786.04 C638.83764,786.911333 639.06666,787.848667 639.71544,788.487333 L645.48978,794.172667 C645.73596,794.415333 645.84882,794.764667 645.79074,795.106 L644.42784,803.134667 C644.27472,804.036667 644.63442,804.930667 645.36768,805.469333 C646.10028,806.008667 647.05398,806.078667 647.8572,805.651333 L654.99444,801.860667 C655.2987,801.699333 655.6617,801.699333 655.96596,801.860667 L663.10386,805.651333 C663.45234,805.836667 663.82986,805.928 664.2054,805.928 C664.69314,805.928 665.1789,805.774 665.59338,805.469333 C666.32664,804.930667 666.68634,804.036667 666.53322,803.134667 L665.16966,795.106667 C665.11158,794.764667 665.22444,794.416 665.47062,794.173333 L671.24496,788.487333 L671.24496,788.487333 Z M663.86946,795.332 L665.23236,803.36 C665.301,803.764 665.1459,804.15 664.81722,804.391333 C664.48788,804.632 664.07802,804.661333 663.71832,804.472 L656.58042,800.680667 C656.23656,800.498667 655.85772,800.406667 655.4802,800.406667 C655.10268,800.406667 654.7245,800.498667 654.37998,800.681333 L647.2434,804.472 C646.88238,804.661333 646.47252,804.632 646.14384,804.391333 C645.81516,804.15 645.66072,803.764667 645.7287,803.36 L647.0916,795.332 C647.22294,794.557333 646.96884,793.766667 646.4118,793.218667 L640.6368,787.532667 C640.34574,787.246 640.24674,786.842 640.3728,786.452 C640.4982,786.061333 640.81302,785.793333 641.21496,785.734 L649.19502,784.562667 C649.96524,784.45 650.63118,783.962 650.97504,783.256667 L654.54366,775.952 C654.72318,775.584 655.07364,775.364667 655.47954,775.364667 C655.8861,775.364667 656.2359,775.584 656.41608,775.952 L659.9847,783.256667 C660.32856,783.962 660.99384,784.45 661.76406,784.562667 L669.74478,785.734 C670.14672,785.793333 670.46154,786.061333 670.58694,786.452 C670.71234,786.842 670.614,787.246 670.32294,787.532667 L664.5486,793.218 C663.99156,793.766667 663.73746,794.556667 663.86946,795.332 L663.86946,795.332 Z" id="Shape"></path>
        </g>
    </g>
</svg>