<?xml version="1.0" encoding="UTF-8" standalone="no"?>
<svg width="15px" height="18px" viewBox="0 0 15 18" version="1.1" xmlns="http://www.w3.org/2000/svg" xmlns:xlink="http://www.w3.org/1999/xlink">
    <!-- Generator: Sketch 39.1 (31720) - http://www.bohemiancoding.com/sketch -->
    <title>Group 9</title>
    <desc>Created with Sketch.</desc>
    <defs></defs>
    <g id="Page-1" stroke="none" stroke-width="1" fill="none" fill-rule="evenodd">
        <g id="1920" transform="translate(-621.000000, -2604.000000)" fill="#FFFFFF">
            <g id="Group-9" transform="translate(621.000000, 2604.000000)">
                <path d="M7.49608355,0 C3.36814621,0 0.00783289817,3.23773585 0.00783289817,7.21509434 C0.00783289817,7.66792453 0.0509138381,8.1245283 0.140992167,8.56981132 C0.144908616,8.59622642 0.160574413,8.6754717 0.191906005,8.81132075 C0.305483029,9.29811321 0.473890339,9.77735849 0.693211488,10.2339623 C1.5,12.0641509 3.27415144,14.8754717 7.16710183,17.8867925 C7.26501305,17.9622642 7.38250653,18 7.5,18 C7.61749347,18 7.73498695,17.9622642 7.83289817,17.8867925 C11.7219321,14.8754717 13.5,12.0641509 14.3067885,10.2339623 C14.5261097,9.77735849 14.694517,9.30188679 14.808094,8.81132075 C14.8394256,8.6754717 14.8550914,8.59622642 14.8590078,8.56981132 C14.9451697,8.1245283 14.9921671,7.66792453 14.9921671,7.21509434 C14.9843342,3.23773585 11.6240209,0 7.49608355,0 L7.49608355,0 Z M13.8093995,8.39245283 C13.8093995,8.4 13.805483,8.40754717 13.805483,8.41509434 C13.8015666,8.43396226 13.7898172,8.49056604 13.770235,8.57735849 L13.770235,8.58490566 C13.6723238,9.00754717 13.5274151,9.41886792 13.3355091,9.81509434 C13.3315927,9.81886792 13.3315927,9.82641509 13.3276762,9.83018868 C12.5953003,11.5018868 10.9895561,14.0528302 7.49608355,16.8339623 C4.00261097,14.0528302 2.39686684,11.5018868 1.66449086,9.83018868 C1.66057441,9.82641509 1.66057441,9.81886792 1.65665796,9.81509434 C1.46866841,9.42264151 1.32375979,9.00754717 1.22193211,8.58490566 L1.22193211,8.57735849 C1.19843342,8.49056604 1.19060052,8.43396226 1.18668407,8.41509434 C1.18668407,8.40754717 1.18276762,8.4 1.18276762,8.38867925 C1.10443864,8 1.06527415,7.60754717 1.06527415,7.21132075 C1.06527415,3.79622642 3.95169713,1.01509434 7.49608355,1.01509434 C11.04047,1.01509434 13.926893,3.79622642 13.926893,7.21132075 C13.926893,7.61132075 13.8877285,8.00754717 13.8093995,8.39245283 L13.8093995,8.39245283 Z" id="Shape"></path>
                <path d="M7.49608355,2.71320755 C4.87597911,2.71320755 2.74151436,4.76981132 2.74151436,7.29433962 C2.74151436,9.81886792 4.87597911,11.8754717 7.49608355,11.8754717 C10.116188,11.8754717 12.2506527,9.81886792 12.2506527,7.29433962 C12.2506527,4.76981132 10.116188,2.71320755 7.49608355,2.71320755 L7.49608355,2.71320755 Z M7.49608355,10.8566038 C5.45561358,10.8566038 3.79895561,9.25660377 3.79895561,7.29433962 C3.79895561,5.33207547 5.45953003,3.73207547 7.49608355,3.73207547 C9.53263708,3.73207547 11.1932115,5.33207547 11.1932115,7.29433962 C11.1932115,9.25660377 9.53655352,10.8566038 7.49608355,10.8566038 L7.49608355,10.8566038 Z" id="Shape"></path>
            </g>
        </g>
    </g>
</svg>