<?xml version="1.0" encoding="UTF-8" standalone="no"?>
<svg width="34px" height="27px" viewBox="0 0 34 27" version="1.1" xmlns="http://www.w3.org/2000/svg" xmlns:xlink="http://www.w3.org/1999/xlink">
    <!-- Generator: Sketch 39.1 (31720) - http://www.bohemiancoding.com/sketch -->
    <title>Group 13</title>
    <desc>Created with Sketch.</desc>
    <defs></defs>
    <g id="Page-1" stroke="none" stroke-width="1" fill="none" fill-rule="evenodd">
        <g id="1920" transform="translate(-720.000000, -1302.000000)" fill="#FFFFFF">
            <g id="Group-13" transform="translate(720.000000, 1302.000000)">
                <path d="M30.0333333,7.875 L30.0333333,3.9375 L26.0666667,3.9375 L26.0666667,0 L0,0 L0,19.125 L3.96666667,19.125 L3.96666667,23.0625 L7.93333333,23.0625 L7.93333333,27 L34,27 L34,7.875 L30.0333333,7.875 L30.0333333,7.875 Z M1.13333333,18 L1.13333333,1.125 L24.9333333,1.125 L24.9333333,3.9375 L3.96666667,3.9375 L3.96666667,18 L1.13333333,18 L1.13333333,18 Z M5.1,21.9375 L5.1,19.125 L5.1,15.75 L5.1,12.375 L5.1,9 L5.1,5.625 L5.1,5.0625 L5.66666667,5.0625 L9.06666667,5.0625 L12.4666667,5.0625 L15.8666667,5.0625 L19.2666667,5.0625 L22.6666667,5.0625 L26.0666667,5.0625 L28.9,5.0625 L28.9,7.875 L27.7666667,7.875 L24.3666667,7.875 L20.9666667,7.875 L17.5666667,7.875 L14.1666667,7.875 L10.7666667,7.875 L7.93333333,7.875 L7.93333333,10.6875 L7.93333333,14.0625 L7.93333333,17.4375 L7.93333333,20.8125 L7.93333333,21.9375 L5.1,21.9375 L5.1,21.9375 Z M32.8666667,25.875 L9.06666667,25.875 L9.06666667,23.0625 L9.06666667,9 L30.0333333,9 L32.8666667,9 L32.8666667,25.875 L32.8666667,25.875 Z" id="Shape"></path>
                <ellipse id="Oval" cx="19.2666667" cy="5.625" rx="0.566666667" ry="0.5625"></ellipse>
                <ellipse id="Oval" cx="20.9666667" cy="7.3125" rx="0.566666667" ry="0.5625"></ellipse>
                <ellipse id="Oval" cx="22.6666667" cy="5.625" rx="0.566666667" ry="0.5625"></ellipse>
                <ellipse id="Oval" cx="26.0666667" cy="5.625" rx="0.566666667" ry="0.5625"></ellipse>
                <ellipse id="Oval" cx="24.3666667" cy="7.3125" rx="0.566666667" ry="0.5625"></ellipse>
                <ellipse id="Oval" cx="27.7666667" cy="7.3125" rx="0.566666667" ry="0.5625"></ellipse>
                <ellipse id="Oval" cx="15.8666667" cy="5.625" rx="0.566666667" ry="0.5625"></ellipse>
                <ellipse id="Oval" cx="17.5666667" cy="7.3125" rx="0.566666667" ry="0.5625"></ellipse>
                <ellipse id="Oval" cx="5.66666667" cy="5.625" rx="0.566666667" ry="0.5625"></ellipse>
                <ellipse id="Oval" cx="5.66666667" cy="9" rx="0.566666667" ry="0.5625"></ellipse>
                <ellipse id="Oval" cx="7.36666667" cy="7.3125" rx="0.566666667" ry="0.5625"></ellipse>
                <ellipse id="Oval" cx="7.36666667" cy="10.6875" rx="0.566666667" ry="0.5625"></ellipse>
                <ellipse id="Oval" cx="9.06666667" cy="5.625" rx="0.566666667" ry="0.5625"></ellipse>
                <ellipse id="Oval" cx="12.4666667" cy="5.625" rx="0.566666667" ry="0.5625"></ellipse>
                <ellipse id="Oval" cx="10.7666667" cy="7.3125" rx="0.566666667" ry="0.5625"></ellipse>
                <ellipse id="Oval" cx="14.1666667" cy="7.3125" rx="0.566666667" ry="0.5625"></ellipse>
                <ellipse id="Oval" cx="5.66666667" cy="12.375" rx="0.566666667" ry="0.5625"></ellipse>
                <ellipse id="Oval" cx="5.66666667" cy="15.75" rx="0.566666667" ry="0.5625"></ellipse>
                <ellipse id="Oval" cx="7.36666667" cy="14.0625" rx="0.566666667" ry="0.5625"></ellipse>
                <ellipse id="Oval" cx="7.36666667" cy="17.4375" rx="0.566666667" ry="0.5625"></ellipse>
                <ellipse id="Oval" cx="5.66666667" cy="19.125" rx="0.566666667" ry="0.5625"></ellipse>
                <ellipse id="Oval" cx="7.36666667" cy="20.8125" rx="0.566666667" ry="0.5625"></ellipse>
            </g>
        </g>
    </g>
</svg>