<?xml version="1.0" encoding="UTF-8" standalone="no"?>
<svg width="17px" height="19px" viewBox="0 0 17 19" version="1.1" xmlns="http://www.w3.org/2000/svg" xmlns:xlink="http://www.w3.org/1999/xlink">
    <!-- Generator: Sketch 39.1 (31720) - http://www.bohemiancoding.com/sketch -->
    <title>reload</title>
    <desc>Created with Sketch.</desc>
    <defs></defs>
    <g id="Page-1" stroke="none" stroke-width="1" fill="none" fill-rule="evenodd">
        <g id="1920" transform="translate(-1093.000000, -7.000000)" fill="#000000">
            <g id="reload" transform="translate(1093.000000, 7.000000)">
                <g id="Capa_1">
                    <g id="Group">
                        <path d="M3.48920267,3.76552857 C6.22661915,1.2296102 10.3232784,1.19083469 13.0985568,3.50573265 L10.8987795,3.59103878 C10.6148151,3.60267143 10.395216,3.84307959 10.4065746,4.13389592 C10.4179332,4.41695714 10.6451047,4.63797755 10.9177105,4.63797755 L10.9366414,4.63797755 L14.3139243,4.51001837 C14.5903163,4.49838571 14.8061292,4.2696102 14.8061292,3.98654898 L14.8061292,3.94777347 L14.8061292,3.92838571 L14.8061292,3.92450816 L14.8061292,3.92450816 L14.6811849,0.504508163 C14.6698263,0.213691837 14.4312962,-0.0112061224 14.151118,0.000426530612 C13.8671537,0.0120591837 13.6475546,0.252467347 13.6589131,0.543283673 L13.7384232,2.68756939 C12.3640356,1.53593673 10.671608,0.868997959 8.86180846,0.775936735 C6.62038307,0.659610204 4.46604009,1.44675306 2.803902,2.99001837 C0.517042316,5.11103878 -0.452222717,8.33716122 0.274726058,11.4081816 C0.331518931,11.6485898 0.539759465,11.8075694 0.770717149,11.8075694 C0.812365256,11.8075694 0.850227171,11.8036918 0.891875278,11.7920592 C1.16448107,11.7222633 1.33485969,11.439202 1.26670824,11.1600184 C0.630628062,8.46124286 1.47873497,5.62675306 3.48920267,3.76552857 L3.48920267,3.76552857 Z" id="Shape"></path>
                        <path d="M16.7522316,7.58103878 C16.6840802,7.3018551 16.4076882,7.12736531 16.1350824,7.19716122 C15.8624766,7.26695714 15.692098,7.55001837 15.7602494,7.82920204 C16.4001158,10.5279776 15.5482227,13.3624673 13.537755,15.2236918 C12.1255056,16.5304265 10.3535679,17.1741 8.58920267,17.1741 C6.90434744,17.1741 5.2232784,16.5885898 3.86782183,15.4330796 L6.09410245,15.2275694 C6.37428062,15.2004265 6.58252116,14.9483857 6.55601782,14.6575694 C6.52951448,14.3667531 6.28341203,14.1573653 5.99944766,14.1845082 L2.63352339,14.4947122 C2.35334521,14.5218551 2.14510468,14.7738959 2.17160802,15.0647122 L2.47450334,18.5118551 C2.49722049,18.7832837 2.72060579,18.9887939 2.98185301,18.9887939 C2.99699777,18.9887939 3.01214254,18.9887939 3.02728731,18.9849163 C3.30746548,18.9577735 3.51570601,18.7057327 3.48920267,18.4149163 L3.30746548,16.3171612 C4.68185301,17.4571612 6.36670824,18.1202224 8.16514922,18.2132837 C8.3090245,18.2210388 8.45289978,18.2249163 8.59298886,18.2249163 C10.6791804,18.2249163 12.6631448,17.441651 14.2230557,15.999202 C16.5099154,13.8781816 17.4791804,10.6559367 16.7522316,7.58103878 L16.7522316,7.58103878 Z" id="Shape"></path>
                    </g>
                </g>
            </g>
        </g>
    </g>
</svg>