<?xml version="1.0" encoding="UTF-8" standalone="no"?>
<svg width="14px" height="17px" viewBox="0 0 14 17" version="1.1" xmlns="http://www.w3.org/2000/svg" xmlns:xlink="http://www.w3.org/1999/xlink">
    <!-- Generator: Sketch 39.1 (31720) - http://www.bohemiancoding.com/sketch -->
    <title>Shape</title>
    <desc>Created with Sketch.</desc>
    <defs></defs>
    <g id="Page-1" stroke="none" stroke-width="1" fill="none" fill-rule="evenodd" stroke-linecap="round" stroke-linejoin="round">
        <g id="1920" transform="translate(-831.000000, -1513.000000)" stroke="#FF0707" fill="#FF0808">
            <path d="M838.582419,1522.26459 C841.555116,1522.26459 843.973581,1520.41066 843.973581,1518.13185 C843.973581,1515.85352 841.555116,1514 838.582419,1514 L833.375256,1514 L833.375256,1523.62823 L832.026419,1523.62823 L832.026419,1524.65095 L833.375256,1524.65095 L833.375256,1529 L834.770605,1529 L834.770605,1524.65095 L839.512698,1524.65095 L839.512698,1523.62823 L834.770605,1523.62823 L834.770605,1522.26459 L838.582419,1522.26459 L838.582419,1522.26459 Z M834.770605,1515.02273 L838.582465,1515.02273 C840.785767,1515.02273 842.578279,1516.41745 842.578279,1518.13185 C842.578279,1519.84673 840.785767,1521.24186 838.582465,1521.24186 L834.770605,1521.24186 L834.770605,1515.02273 L834.770605,1515.02273 Z" id="Shape"></path>
        </g>
    </g>
</svg>