<?xml version="1.0" encoding="UTF-8" standalone="no"?>
<svg width="14px" height="17px" viewBox="0 0 14 17" version="1.1" xmlns="http://www.w3.org/2000/svg" xmlns:xlink="http://www.w3.org/1999/xlink">
    <!-- Generator: Sketch 39.1 (31720) - http://www.bohemiancoding.com/sketch -->
    <title>Shape</title>
    <desc>Created with Sketch.</desc>
    <defs></defs>
    <g id="Page-1" stroke="none" stroke-width="1" fill="none" fill-rule="evenodd" stroke-linecap="round" stroke-linejoin="round">
        <g id="1920" transform="translate(-827.000000, -1054.000000)" stroke="#9B9B9B" fill="#9B9B9B">
            <path d="M834.556,1063.26459 C837.528698,1063.26459 839.947163,1061.41066 839.947163,1059.13185 C839.947163,1056.85352 837.528698,1055 834.556,1055 L829.348837,1055 L829.348837,1064.62823 L828,1064.62823 L828,1065.65095 L829.348837,1065.65095 L829.348837,1070 L830.744186,1070 L830.744186,1065.65095 L835.486279,1065.65095 L835.486279,1064.62823 L830.744186,1064.62823 L830.744186,1063.26459 L834.556,1063.26459 L834.556,1063.26459 Z M830.744186,1056.02273 L834.556047,1056.02273 C836.759349,1056.02273 838.55186,1057.41745 838.55186,1059.13185 C838.55186,1060.84673 836.759349,1062.24186 834.556047,1062.24186 L830.744186,1062.24186 L830.744186,1056.02273 L830.744186,1056.02273 Z" id="Shape"></path>
        </g>
    </g>
</svg>