<?xml version="1.0" encoding="UTF-8" standalone="no"?>
<svg width="16px" height="16px" viewBox="0 0 16 16" version="1.1" xmlns="http://www.w3.org/2000/svg" xmlns:xlink="http://www.w3.org/1999/xlink">
    <!-- Generator: Sketch 39.1 (31720) - http://www.bohemiancoding.com/sketch -->
    <title>tel_white</title>
    <desc>Created with Sketch.</desc>
    <defs></defs>
    <g id="Page-1" stroke="none" stroke-width="1" fill="none" fill-rule="evenodd">
        <g id="katalog" transform="translate(-270.000000, -595.000000)" fill="#000000">
            <g id="tel_white" transform="translate(270.000000, 595.000000)">
                <g id="phone-receiver">
                    <g id="Page-1">
                        <g id="1920">
                            <g id="keyboard-right-arrow-button">
                                <g id="phone-receiver">
                                    <g id="Capa_1">
                                        <path d="M15.9676684,12.6263806 C16.0015199,12.886173 15.922487,13.1120554 15.7309016,13.3040277 L13.4816166,15.5401799 C13.3801451,15.6531211 13.247696,15.7492042 13.0842142,15.8281799 C12.9207323,15.9072664 12.7600967,15.95809 12.6023074,15.9806505 C12.5910328,15.9806505 12.5571261,15.9835571 12.5007254,15.9892042 C12.4444352,15.9948235 12.3711503,15.9977024 12.2809534,15.9977024 C12.0666805,15.9977024 11.7199585,15.9609965 11.2407876,15.8875571 C10.7616166,15.8141176 10.1753644,15.6333841 9.48203109,15.3454394 C8.78853195,15.0574394 8.00215544,14.6253841 7.12276339,14.0494394 C6.24337133,13.4735225 5.30755095,12.6828789 4.31538515,11.6776747 C3.52616235,10.8983806 2.87223489,10.1529689 2.35360276,9.44146713 C1.83497064,8.72991003 1.41781002,8.07202768 1.1021209,7.46779239 C0.786404145,6.86355709 0.549637306,6.31579239 0.391792746,5.82449827 C0.233948187,5.33320415 0.126839378,4.90967474 0.0704663212,4.55391003 C0.0140932642,4.19814533 -0.00845595855,3.91861592 0.00281865285,3.7153218 C0.0140932642,3.51202768 0.0197305699,3.39908651 0.0197305699,3.37649827 C0.0422797927,3.21838062 0.093015544,3.05743945 0.171937824,2.89367474 C0.250860104,2.72991003 0.346694301,2.59720415 0.459440415,2.49555709 L2.70872539,0.242380623 C2.86656995,0.0842629758 3.04696373,0.00520415225 3.24990674,0.00520415225 C3.39647668,0.00520415225 3.52613472,0.0475570934 3.63888083,0.132262976 C3.75162694,0.216968858 3.84746114,0.321439446 3.92638342,0.44567474 L5.73595855,3.88473356 C5.83743005,4.06543945 5.86561658,4.26308651 5.82051813,4.47767474 C5.77541969,4.69226298 5.67958549,4.87296886 5.53301554,5.01979239 L4.70433161,5.84991003 C4.68178238,5.87249827 4.66205181,5.90920415 4.6451399,5.96002768 C4.62822798,6.01085121 4.61977202,6.05320415 4.61977202,6.08708651 C4.66487047,6.32426298 4.76634197,6.5953218 4.92418653,6.90026298 C5.05948187,7.1713218 5.26806218,7.50167474 5.54992746,7.8913218 C5.83179275,8.28096886 6.23204145,8.72988235 6.75067358,9.23811765 C7.25803109,9.75770242 7.70901554,10.1614118 8.10362694,10.4494671 C8.49815544,10.7373564 8.82804836,10.9492042 9.09300173,11.0847336 C9.35795509,11.220263 9.5608981,11.3021453 9.70180311,11.3302976 L9.9131468,11.3726782 C9.93569603,11.3726782 9.97242142,11.3641799 10.0231019,11.3472664 C10.0738377,11.3302976 10.1104801,11.3105606 10.133057,11.2879446 L11.0970086,10.3053564 C11.3000622,10.1246782 11.5367185,10.0343253 11.8073368,10.0343253 C11.9990604,10.0343253 12.1511848,10.0681799 12.2639309,10.1359723 L12.2808152,10.1359723 L15.5447876,12.0672664 C15.7816373,12.2142007 15.9225423,12.4004983 15.9676684,12.6263806 L15.9676684,12.6263806 L15.9676684,12.6263806 Z" id="Shape"></path>
                                    </g>
                                </g>
                            </g>
                        </g>
                    </g>
                </g>
            </g>
        </g>
    </g>
</svg>