<?xml version="1.0" encoding="UTF-8" standalone="no"?>
<svg width="25px" height="25px" viewBox="0 0 25 25" version="1.1" xmlns="http://www.w3.org/2000/svg" xmlns:xlink="http://www.w3.org/1999/xlink">
    <!-- Generator: Sketch 39.1 (31720) - http://www.bohemiancoding.com/sketch -->
    <title>Group 8</title>
    <desc>Created with Sketch.</desc>
    <defs></defs>
    <g id="Page-1" stroke="none" stroke-width="1" fill="none" fill-rule="evenodd">
        <g id="1920" transform="translate(-1208.000000, -163.000000)" fill="#FFFFFF">
            <g id="Group-8" transform="translate(1208.000000, 163.000000)">
                <path d="M12.5008987,25 L12.5008987,24.4287582 L12.5,25 C5.60743464,25 0,19.3923611 0,12.4997958 C0,5.60743464 5.60743464,0 12.5,0 C19.3925654,0 25,5.60743464 25,12.4997958 C25,19.3923611 19.3927696,25 12.5008987,25 L12.5008987,25 Z M12.5,1.14256536 C6.2374183,1.14256536 1.14256536,6.23745915 1.14256536,12.4997958 C1.14256536,18.7623366 6.2374183,23.8574346 12.5,23.8574346 L12.5008987,23.8574346 C18.7627451,23.8574346 23.8574346,18.7622958 23.8574346,12.4997549 C23.8574346,6.2374183 18.7625817,1.14256536 12.5,1.14256536 L12.5,1.14256536 Z" id="Shape"></path>
                <path d="M12.5,15.1310866 C12.1844363,15.1310866 11.9287173,14.8753676 11.9287173,14.5598039 L11.9287173,12.1417075 C11.9287173,11.8261438 12.1844363,11.5704248 12.5,11.5704248 C13.7643382,11.5704248 14.7928922,10.5419118 14.7928922,9.27757353 C14.7928922,8.0129902 13.7643382,6.98402778 12.5,6.98402778 C11.2356618,6.98402778 10.2069036,8.0129902 10.2069036,9.27757353 C10.2069036,9.59313725 9.95118464,9.84885621 9.63562092,9.84885621 C9.32005719,9.84885621 9.06433824,9.59313725 9.06433824,9.27757353 C9.06433824,7.38300654 10.6056373,5.84146242 12.5,5.84146242 C14.3943627,5.84146242 15.9354575,7.38300654 15.9354575,9.27757353 C15.9354575,10.9772467 14.6946487,12.3926471 13.0713235,12.665482 L13.0713235,14.5598448 C13.0712418,14.8753676 12.8156046,15.1310866 12.5,15.1310866 L12.5,15.1310866 Z" id="Shape"></path>
                <ellipse id="Oval" cx="12.4997958" cy="17.7182598" rx="0.940767974" ry="0.940767974"></ellipse>
            </g>
        </g>
    </g>
</svg>