<?xml version="1.0" encoding="UTF-8" standalone="no"?>
<svg width="22px" height="22px" viewBox="0 0 22 22" version="1.1" xmlns="http://www.w3.org/2000/svg" xmlns:xlink="http://www.w3.org/1999/xlink">
    <!-- Generator: Sketch 39.1 (31720) - http://www.bohemiancoding.com/sketch -->
    <title>smartphone (2)</title>
    <desc>Created with Sketch.</desc>
    <defs></defs>
    <g id="Page-1" stroke="none" stroke-width="1" fill="none" fill-rule="evenodd">
        <g id="1920" transform="translate(-1188.000000, -96.000000)" fill="#FFFFFF">
            <g id="smartphone-(2)" transform="translate(1188.000000, 96.000000)">
                <g id="Capa_1">
                    <g id="Group">
                        <path d="M20.7577333,1.6753 C20.6143667,1.53193333 20.3826333,1.53193333 20.2392667,1.6753 C20.0959,1.81866667 20.0959,2.0504 20.2392667,2.19376667 C21.6091333,3.56363333 21.6091333,5.7926 20.2392667,7.16283333 C20.0959,7.3062 20.0959,7.53793333 20.2392667,7.6813 C20.3107667,7.7528 20.4046333,7.78873333 20.4985,7.78873333 C20.5923667,7.78873333 20.6862333,7.7528 20.7577333,7.6813 C22.4136,6.0258 22.4136,3.33116667 20.7577333,1.6753 L20.7577333,1.6753 Z" id="Shape"></path>
                        <path d="M19.2137,2.50983333 C19.0703333,2.36646667 18.8386,2.36646667 18.6952333,2.50983333 C18.5518667,2.6532 18.5518667,2.88493333 18.6952333,3.0283 C19.1488,3.48186667 19.3985,4.08613333 19.3985,4.72926667 C19.3985,5.3724 19.1488,5.9763 18.6952333,6.42986667 C18.5518667,6.57323333 18.5518667,6.80496667 18.6952333,6.94833333 C18.7667333,7.01983333 18.8606,7.05576667 18.9544667,7.05576667 C19.0483333,7.05576667 19.1422,7.01983333 19.2137,6.94833333 C19.8058667,6.35653333 20.1318333,5.5682 20.1318333,4.72926667 C20.1318333,3.89033333 19.8062333,3.10163333 19.2137,2.50983333 L19.2137,2.50983333 Z" id="Shape"></path>
                        <path d="M1.76073333,2.19376667 C1.9041,2.0504 1.9041,1.81866667 1.76073333,1.6753 C1.61736667,1.53193333 1.38563333,1.53193333 1.24226667,1.6753 C-0.4136,3.33116667 -0.4136,6.02543333 1.24226667,7.6813 C1.31376667,7.7528 1.40763333,7.78873333 1.5015,7.78873333 C1.59536667,7.78873333 1.68923333,7.7528 1.76073333,7.6813 C1.9041,7.53793333 1.9041,7.3062 1.76073333,7.16283333 C0.3905,5.79296667 0.3905,3.564 1.76073333,2.19376667 L1.76073333,2.19376667 Z" id="Shape"></path>
                        <path d="M3.30476667,2.40863333 C3.1614,2.26526667 2.92966667,2.26526667 2.7863,2.40863333 C2.19413333,3.00043333 1.86816667,3.78876667 1.86816667,4.6277 C1.86816667,5.46663333 2.19413333,6.25496667 2.7863,6.84713333 C2.8578,6.91863333 2.95166667,6.95456667 3.04553333,6.95456667 C3.1394,6.95456667 3.23326667,6.91863333 3.30476667,6.84713333 C3.44813333,6.70376667 3.44813333,6.47203333 3.30476667,6.32866667 C2.8512,5.8751 2.6015,5.27083333 2.6015,4.6277 C2.6015,3.98456667 2.85083333,3.38066667 3.30476667,2.9271 C3.44776667,2.7841 3.44776667,2.552 3.30476667,2.40863333 L3.30476667,2.40863333 Z" id="Shape"></path>
                        <circle id="Oval" cx="11" cy="19.4333333" r="0.733333333"></circle>
                        <path d="M15.6181667,0 L6.38183333,0 C5.4912,0 4.76666667,0.7249 4.76666667,1.61516667 L4.76666667,20.3844667 C4.76666667,21.2751 5.4912,22 6.38183333,22 L15.6178,22 C16.5088,22 17.2333333,21.2751 17.2333333,20.3848333 L17.2333333,1.61516667 C17.2333333,0.7249 16.5088,0 15.6181667,0 L15.6181667,0 Z M12.1,1.1 L12.4666667,1.1 C12.6690667,1.1 12.8333333,1.2639 12.8333333,1.46666667 C12.8333333,1.66943333 12.6690667,1.83333333 12.4666667,1.83333333 L12.1,1.83333333 C11.8976,1.83333333 11.7333333,1.66943333 11.7333333,1.46666667 C11.7333333,1.2639 11.8976,1.1 12.1,1.1 L12.1,1.1 Z M9.53333333,1.1 L11,1.1 C11.2024,1.1 11.3666667,1.2639 11.3666667,1.46666667 C11.3666667,1.66943333 11.2024,1.83333333 11,1.83333333 L9.53333333,1.83333333 C9.33093333,1.83333333 9.16666667,1.66943333 9.16666667,1.46666667 C9.16666667,1.2639 9.33093333,1.1 9.53333333,1.1 L9.53333333,1.1 Z M11,20.9 C10.1911333,20.9 9.53333333,20.2422 9.53333333,19.4333333 C9.53333333,18.6244667 10.1911333,17.9666667 11,17.9666667 C11.8088667,17.9666667 12.4666667,18.6244667 12.4666667,19.4333333 C12.4666667,20.2422 11.8088667,20.9 11,20.9 L11,20.9 Z M16.5,16.8666667 L5.5,16.8666667 L5.5,2.93333333 L16.5,2.93333333 L16.5,16.8666667 L16.5,16.8666667 Z" id="Shape"></path>
                    </g>
                </g>
            </g>
        </g>
    </g>
</svg>